<?xml version="1.0" standalone="no"?>
<!DOCTYPE svg PUBLIC "-//W3C//DTD SVG 1.1//EN" "http://www.w3.org/Graphics/SVG/1.1/DTD/svg11.dtd" >
<svg xmlns="http://www.w3.org/2000/svg" xmlns:xlink="http://www.w3.org/1999/xlink" version="1.1">
<metadata>
Created by FontForge 20170731 at Fri Feb 19 19:57:11 2021
 By Aleksey,,,
</metadata>
<defs>
<font id="CyreneRegularAdvanced" horiz-adv-x="1234" >
  <font-face 
    font-family="Cyrene Regular Advanced"
    font-weight="400"
    font-stretch="normal"
    units-per-em="2048"
    panose-1="0 0 0 0 0 0 0 0 0 0"
    ascent="1638"
    descent="-410"
    x-height="943"
    cap-height="1308"
    bbox="-506 -438 1909 1648"
    underline-thickness="102"
    underline-position="-307"
    unicode-range="U+000A-2212"
  />
<missing-glyph horiz-adv-x="1079" 
d="M102 1434h875v-1434h-875v1434zM160 1393l379 -633l381 633h-760zM514 717l-369 614v-1231zM541 674l-379 -631h758zM565 717l371 -621v1239z" />
    <glyph glyph-name=".notdef" horiz-adv-x="1079" 
d="M102 1434h875v-1434h-875v1434zM160 1393l379 -633l381 633h-760zM514 717l-369 614v-1231zM541 674l-379 -631h758zM565 717l371 -621v1239z" />
    <glyph glyph-name=".null" horiz-adv-x="0" 
 />
    <glyph glyph-name=".null" horiz-adv-x="0" 
 />
    <glyph glyph-name="nonmarkingreturn" horiz-adv-x="682" 
 />
    <glyph glyph-name="controlLF" unicode="&#xa;" horiz-adv-x="0" 
 />
    <glyph glyph-name="controlCR" unicode="&#xd;" horiz-adv-x="0" 
 />
    <glyph glyph-name="space" unicode=" " horiz-adv-x="491" 
 />
    <glyph glyph-name="exclam" unicode="!" horiz-adv-x="303" 
d="M195 323h-89l-33 985h160zM151 0q-34 0 -57.5 23.5t-23.5 57.5t23.5 57.5t57.5 23.5t57.5 -23.5t23.5 -57.5t-23.5 -57.5t-57.5 -23.5z" />
    <glyph glyph-name="quotedbl" unicode="&#x22;" horiz-adv-x="546" 
d="M76 852l-31 454h160l-44 -454h-85zM342 1306h160l-44 -454h-86z" />
    <glyph glyph-name="numbersign" unicode="#" horiz-adv-x="1064" 
d="M1022 856h-198l-71 -306h269v-78h-287l-110 -471l-89 -1l100 472h-318l-109 -471l-90 -1l101 472h-175v78h191l65 305h-256v78h273l100 470l118 2l-110 -472h308l100 470l118 2l-110 -472h180v-77zM653 550l65 306h-310l-72 -306h317z" />
    <glyph glyph-name="dollar" unicode="$" horiz-adv-x="1019" 
d="M532 720q176 -72 244 -113q163 -99 174 -243q1 -8 1 -16q1 -39 -7 -79.5t-33 -90t-65 -88t-112 -66t-165 -30.5h-37v-191h-50v194q-99 10 -179 48t-130.5 94t-81 113.5t-44.5 118.5h165q88 -249 270 -292v510q-8 4 -24 10q-56 24 -91.5 40t-84 42t-78.5 51.5t-59.5 59
t-43.5 74t-15 87.5q-1 39 6.5 79.5t31.5 90.5t62.5 88.5t108 64.5t159.5 26q5 0 14.5 -1t13.5 -1v120h50v-123q105 -11 188 -53t132.5 -101t77 -120.5t36.5 -125.5h-153q-4 17 -8.5 32t-18 51.5t-34.5 66.5t-50 63.5t-73.5 58.5t-96.5 37v-486zM218 1035q0 -91 61.5 -159
t202.5 -135v473q-26 2 -39 2q-94 0 -159.5 -53.5t-65.5 -127.5zM572 70q126 4 183 54t55 143q-2 94 -64 160t-214 139v-495q13 -1 40 -1z" />
    <glyph glyph-name="percent" unicode="%" horiz-adv-x="1357" 
d="M984 1349h132l-777 -1349l-70 1zM574 993q0 -147 -79 -251t-191 -104q-62 0 -113 33q-2 1 -17 11q-8 6 -12 10q-3 2 -14 13q-53 49 -83 124.5t-30 163.5q0 147 79 251.5t190 104.5q73 0 134 -47q1 0 1 -1l3 -3q60 -47 96 -128t36 -177zM204 713q57 -32 126 5
q80 41 131 155q48 110 37.5 222t-72.5 163q-2 2 -8 6l-14 9q-25 14 -56 14q-37 0 -70 -18q-83 -44 -131 -156q-48 -110 -37 -222t73 -163q1 0 2 -1l2 -2q11 -9 17 -12zM1188 661q60 -46 95.5 -127.5t35.5 -177.5q0 -147 -78.5 -251.5t-190.5 -104.5q-60 0 -114 34
q-8 4 -17 10q-4 3 -11 10q-5 3 -15 13q-52 49 -82.5 125t-30.5 164q0 147 79.5 251t190.5 104q72 0 133 -47q1 1 1 0l2 -1q2 -1 2 -2zM1076 80q80 41 131 156q48 110 37 222t-73 163q-4 4 -7 6l-14 9q-25 14 -57 14q-34 0 -69 -19q-83 -44 -131 -156q-48 -110 -37.5 -222
t72.5 -163q1 -1 4 -3q6 -5 18 -11q60 -32 126 4z" />
    <glyph glyph-name="ampersand" unicode="&#x26;" horiz-adv-x="1118" 
d="M863 194l170 -194h-166l-81 112q-134 -112 -345 -112q-165 0 -271 91l-5 5q-94 80 -117 205q-18 106 33 206t150 168q12 8 27.5 18t36.5 24t35 23l-97 134q-43 67 -51.5 143.5t22.5 150.5q25 57 87 99.5t161 38.5q129 -6 183.5 -79t48.5 -189q-9 -171 -228 -341
q101 -140 295 -371q23 39 39.5 81.5t21.5 64.5l4 23h161q-1 -18 -5.5 -49t-33 -110.5t-75.5 -141.5zM290 1091q-9 -22 -6.5 -53t6.5 -55.5t16 -55t21.5 -51t23 -43.5t20 -34t13.5 -21l3 -5q5 2 12 7q20 14 42 31.5t54 47.5t57.5 68.5t36.5 77.5q27 99 4.5 163t-86.5 82
q-66 19 -128 -22.5t-89 -136.5zM435 103q158 27 255 140l-297 411l-8 -4q-160 -122 -215 -268q-49 -129 8 -211q64 -92 232 -72q12 2 25 4z" />
    <glyph glyph-name="quotesingle" unicode="'" horiz-adv-x="249" 
d="M45 1306h160l-44 -454h-85z" />
    <glyph glyph-name="parenleft" unicode="(" horiz-adv-x="374" 
d="M347 -225q-79 124 -121 210q-207 427 -148 857q46 339 259 651h127q-9 -10 -23 -28.5t-54.5 -80.5t-74.5 -129t-71 -170.5t-57 -208.5t-21 -239.5t26.5 -267.5t96.5 -288.5t178 -305.5h-117z" />
    <glyph glyph-name="parenright" unicode=")" horiz-adv-x="374" 
d="M37 1493q91 -134 151.5 -273t87.5 -261t31 -247.5t-8.5 -226.5t-41 -204t-57 -175.5t-66 -144.5t-58.5 -106.5t-42 -67.5l-8 -12h-116q139 191 213.5 389t83.5 361.5t-12.5 317.5t-70.5 269.5t-95.5 203t-82.5 132.5l-36 45h127z" />
    <glyph glyph-name="asterisk" unicode="*" horiz-adv-x="571" 
d="M530 1146q-90 -29 -185 -77q42 -21 88.5 -40t71.5 -27l25 -9l-56 -97q-70 63 -159 121q2 -47 8.5 -96.5t12.5 -75.5l5 -26h-112q21 92 26 198q-40 -25 -79.5 -55.5t-59.5 -47.5l-19 -18l-56 97q90 29 184 76q-42 21 -88 40.5t-71 28.5l-25 8l56 97q69 -64 158 -121
q-2 47 -8.5 96.5t-12.5 75.5l-5 26h112q-21 -92 -26 -198q40 26 79.5 56t59.5 48l20 17z" />
    <glyph glyph-name="plus" unicode="+" horiz-adv-x="897" 
d="M496 477h382v-95h-382v-382h-95v382h-383v95h383v382h95v-382z" />
    <glyph glyph-name="comma" unicode="," horiz-adv-x="225" 
d="M105 166q42 0 66 -35t24 -84q0 -155 -159 -221v29q110 40 110 169q-17 -14 -41 -14q-33 0 -55.5 23t-22.5 56q0 32 23 54.5t55 22.5z" />
    <glyph glyph-name="hyphen" unicode="-" horiz-adv-x="585" 
d="M23 377v95h539v-95h-539z" />
    <glyph glyph-name="period" unicode="." horiz-adv-x="217" 
d="M108 0q-34 0 -57.5 23.5t-23.5 57.5t23.5 57.5t57.5 23.5t57.5 -23.5t23.5 -57.5t-23.5 -57.5t-57.5 -23.5z" />
    <glyph glyph-name="slash" unicode="/" horiz-adv-x="624" 
d="M14 0l350 1351h183l-434 -1351h-99z" />
    <glyph glyph-name="zero" unicode="0" horiz-adv-x="1103" 
d="M804 1215q111 -86 177 -235.5t66 -325.5q0 -177 -66.5 -328t-181 -238.5t-248.5 -87.5q-111 0 -209 62q-8 4 -31 20q-14 10 -21 17q-5 3 -27 25q-96 89 -152 228.5t-56 301.5q0 177 66.5 328t181 238.5t248.5 87.5q131 0 245 -87q2 0 3 -1zM840 433q88 202 68.5 408.5
t-134.5 300.5q-6 5 -13 10l-26 17q-46 26 -104 26q-63 0 -128 -34q-73 -38 -135.5 -112.5t-105.5 -174.5q-88 -201 -68.5 -407t134.5 -301q1 -1 3.5 -3t3.5 -3q14 -11 32 -21q106 -58 232 9q149 77 241 285z" />
    <glyph glyph-name="one" unicode="1" horiz-adv-x="686" 
d="M452 1308h149v-1308h-124v1226q0 -63 -15.5 -115t-40 -85.5t-58 -59t-65 -39t-67 -21.5t-58.5 -10t-43 -2q-26 0 -52 3v78q53 3 104 24q141 57 225 202q26 46 45 107z" />
    <glyph glyph-name="two" unicode="2" horiz-adv-x="942" 
d="M631 545q-60 -40 -157 -100.5t-156.5 -99t-121.5 -85t-91.5 -85.5t-27.5 -73h804v-102h-854q4 17 1 34t0 41t5.5 48.5t17.5 57.5t35.5 67.5t60.5 78.5t91.5 90t129 103t173.5 117q98 62 158.5 136.5t77.5 144t6 134.5t-49 114.5t-94 77.5q-33 15 -77 22q-3 0 -7 1t-6 1
l-25 2q-35 2 -64 -5q-1 0 -13 -2t-18 -4q-78 -20 -149 -73t-114 -122l-78 78q65 101 200 144t274 18q66 -5 130 -42q91 -45 135 -125l2 -5q30 -44 44 -85l1 -3l-1 1q16 -45 18.5 -91.5t-10 -99t-42 -103t-83 -104t-126.5 -102.5z" />
    <glyph glyph-name="three" unicode="3" horiz-adv-x="1028" 
d="M975 391q3 -17 3 -33q0 -4 -0.5 -13t-0.5 -14q-8 -63 -37 -117q-2 -3 -5.5 -9t-5.5 -9q-1 0 -2 -1q-39 -63 -103 -108t-138 -66t-156 -23.5t-158.5 14t-144 53t-114 87t-67 122t-4.5 152.5h116q-51 -106 -19 -203.5t134 -136.5q1 0 8 -3q17 -7 31 -10q117 -29 248.5 30.5
t199.5 165.5q47 70 55.5 147.5t-29 144.5t-116.5 98q-8 2 -13 4l-26 8q-81 18 -168 -4v36q62 18 121 57t100 89q6 6 8 10q28 36 45 71q1 1 1 2q1 2 3 5t3 5q54 118 10 212.5t-158 113.5q-3 0 -7 1t-6 1l-25 2q-36 2 -65 -5q-23 -5 -31 -7q-78 -20 -148.5 -72.5
t-113.5 -121.5l-78 78q53 83 159 127.5t216.5 44.5t213.5 -46.5t150 -131.5q1 -2 3 -5t3.5 -5.5t2.5 -4.5q39 -74 31.5 -148t-56 -137.5t-122.5 -94.5q-3 -2 -11 -6q-39 -17 -79 -29h3t3 -1q115 -26 200.5 -92t118.5 -155q14 -35 17 -69z" />
    <glyph glyph-name="four" unicode="4" horiz-adv-x="1060" 
d="M856 404h190v-83h-190v-319h-128v319h-650v73q67 0 145.5 54t148.5 139t136 190t114 206.5t77 189t29 136.5v1h128v-906zM728 404v702q-10 -122 -64.5 -248t-128.5 -219.5t-156 -158t-149 -76.5h498z" />
    <glyph glyph-name="five" unicode="5" horiz-adv-x="1024" 
d="M513 924q125 0 231.5 -62t168.5 -168.5t62 -231.5q0 -114 -52 -213t-142 -162q-14 -12 -25 -17q-4 -3 -20 -12q-24 -12 -29 -14q-93 -44 -194 -44q-167 0 -295 106.5t-159 267.5h151q14 -36 33 -68q86 -146 225 -202q117 -48 216 -6q15 6 30 15q1 1 3.5 3t3.5 2
q107 67 125 212t-64 287q-84 147 -225 203q-61 24 -120 24q-54 0 -96 -18l-24 -12l-6 -3l-1 -1q-2 0 -2 -1q0 1 1 1t2 1l6 3q-11 -6 -13 -7q-65 -40 -97.5 -113.5t-29.5 -163.5h-122l158 778h679v-95h-614l-148 -492q58 85 146 137l2 2q2 1 3 2t3 1q105 61 229 61z" />
    <glyph glyph-name="six" unicode="6" horiz-adv-x="995" 
d="M511 876q177 0 302 -125t125 -302q0 -114 -56.5 -211.5t-151.5 -153.5q-2 -2 -6 -4q0 -1 -1 -1q-96 -56 -212 -56q-148 0 -262 90q-2 1 -5 3.5t-4 3.5q-64 64 -101.5 125.5t-55.5 131t-20.5 154t3.5 194.5q6 109 25.5 198.5t48 150.5t66.5 107.5t76.5 73.5t83 44t81 22.5
t74.5 5.5q115 0 216 -60h1q1 -1 3 -2t3 -2q126 -78 181 -221q-3 -1 -7 -2.5t-7 -2.5q-35 -13 -76 -34q-16 144 -118 210q-2 2 -6 4l-6 3l-22 12q-41 17 -92 17q-56 0 -112 -23q-87 -36 -154 -114q-35 -36 -58 -83q-1 -1 -3.5 -5.5t-3.5 -7.5q-12 -24 -21 -48
q-40 -107 -50 -240q39 42 74 67q14 10 24 16q3 3 17 11q17 9 28 13q85 41 179 41zM703 131q99 62 116 196.5t-59 265.5q-79 135 -208 186q-108 45 -199 6q-14 -6 -28 -14q-1 -1 -3 -2t-3 -2q-59 -37 -90 -103.5t-29 -147.5q3 -109 62 -210q77 -136 208 -187q57 -23 110 -23
q50 0 90 17l22 11q1 0 2.5 1t2.5 2t3 2t3 2z" />
    <glyph glyph-name="seven" unicode="7" horiz-adv-x="1011" 
d="M78 1299h855v-108l-582 -1191h-168l682 1198h-787v101z" />
    <glyph glyph-name="eight" unicode="8" horiz-adv-x="952" 
d="M615 718q127 -38 207.5 -133.5t80.5 -215.5q0 -92 -48 -170.5t-131 -128.5q-12 -8 -23 -14q-3 -2 -19 -10q-21 -9 -26 -11q-88 -35 -180 -35q-176 0 -301.5 108t-125.5 261q0 100 57 184t152 133l2 1q2 1 3 2t2 1q23 12 73 28q-80 33 -133 101q-81 103 -59 229.5
t134 201.5q67 44 148.5 55t154.5 -13q14 -4 20 -7q6 -2 16 -6q14 -6 20 -10q65 -32 108 -89q81 -104 59 -230.5t-134 -201.5q-24 -16 -57 -30zM335 763l17 -8q2 -1 10 -4q84 -32 177.5 15.5t142.5 147.5q50 102 23 201q-22 83 -88 120q-11 6 -21 10q-1 1 -3 1t-3 1
q-84 32 -177 -15t-142 -147q-51 -101 -24 -202q13 -46 36 -74q22 -28 52 -46zM668 94q99 53 116 170t-59 230q-77 117 -208 162q-56 19 -110 19q-48 0 -90 -15l-22 -9q-8 -4 -11 -6q-99 -53 -116 -169.5t59 -230.5q81 -119 208 -162q105 -38 200 -4q26 10 27 11q1 0 3 2t3 2
z" />
    <glyph glyph-name="nine" unicode="9" horiz-adv-x="995" 
d="M755 1207q64 -64 101.5 -125.5t55.5 -131t21 -154t-3 -194.5q-6 -109 -25.5 -198.5t-48 -150.5t-66.5 -107.5t-76.5 -73.5t-83 -44t-81 -22.5t-74.5 -5.5q-115 0 -216 60q-2 0 -2 1q-1 1 -2.5 2t-2.5 1q-127 79 -182 221q2 1 7 2.5t8 2.5q30 12 75 34q16 -144 118 -210
q2 -2 6 -4q1 0 3.5 -1t3.5 -2l21 -11q44 -18 92 -18q57 0 113 23q87 36 154 114q32 34 57 83q1 1 2.5 4t2.5 5.5t2 4.5q14 27 21 47q41 110 51 240q-37 -40 -75 -67q-17 -12 -23 -16q-1 -1 -18 -11q-18 -10 -27 -13q-83 -40 -180 -40q-177 0 -302 124.5t-125 301.5
q0 114 57 212t152 154q3 3 5 4h2q96 56 211 56q148 0 262 -90q2 -1 5 -3.5t4 -3.5zM676 560q59 37 90 103.5t29 147.5q-3 109 -62 210q-78 137 -208 188q-54 22 -110 22q-49 0 -89 -17l-22 -11l-6 -3q-1 -1 -3 -2t-3 -2q-99 -62 -116 -196t59 -265q80 -136 208 -187
q107 -44 200 -5q18 8 27 13q1 1 3 2t3 2z" />
    <glyph glyph-name="colon" unicode=":" horiz-adv-x="241" 
d="M120 0q-34 0 -57.5 23.5t-23.5 57.5t23.5 57.5t57.5 23.5t57.5 -23.5t23.5 -57.5t-23.5 -57.5t-57.5 -23.5zM120 671q-33 0 -57 24t-24 57t24 57t57 24t57 -24t24 -57t-24 -57t-57 -24z" />
    <glyph glyph-name="semicolon" unicode=";" horiz-adv-x="249" 
d="M120 166q42 0 66 -35t24 -84q0 -155 -160 -221v29q110 40 110 169q-17 -14 -40 -14q-33 0 -56 23t-23 56q0 32 23.5 54.5t55.5 22.5zM120 675q-33 0 -57 24t-24 57t24 57t57 24t57 -24t24 -57t-24 -57t-57 -24z" />
    <glyph glyph-name="less" unicode="&#x3c;" horiz-adv-x="944" 
d="M904 923v-85l-844 -292l844 -292v-141l-871 329v151z" />
    <glyph glyph-name="equal" unicode="=" horiz-adv-x="929" 
d="M898 168h-863v95h863v-95zM894 556h-863v95h863v-95z" />
    <glyph glyph-name="greater" unicode="&#x3e;" horiz-adv-x="944" 
d="M39 838v85l872 -330v-151l-872 -329v141l844 292z" />
    <glyph glyph-name="question" unicode="?" horiz-adv-x="841" 
d="M332 162q33 0 57 -24t24 -57t-24 -57t-57 -24t-57 24t-24 57t24 57t57 24zM808 1086q16 -88 -28.5 -170.5t-127.5 -148.5q-126 -99 -172 -146q-143 -146 -116 -298h-72q-16 48 -17.5 94.5t12.5 88t35.5 79.5t55 74.5t67 66.5t75.5 62q143 109 188 239q38 113 -18 180
q-63 74 -212 49q-57 -9 -105.5 -32.5t-80.5 -54t-58 -64.5t-41 -66.5t-24.5 -59t-12.5 -42.5l-4 -16h-138q1 9 2.5 24t13 59t29 84t53 88.5t81.5 83.5t118.5 59t160.5 24q142 0 232 -77l4 -4q81 -71 100 -176z" />
    <glyph glyph-name="at" unicode="@" horiz-adv-x="1824" 
d="M1181 135q-2 33 -1 65.5t3 57.5l2 24q-138 -168 -328 -168q-103 0 -194 43q-19 8 -29 14q-9 5 -20 13q-9 5 -25 17q-89 63 -141.5 162t-52.5 212q0 126 62 232.5t168.5 168.5t231.5 62q121 0 229 -62h2q4 -2 5 -4q62 -37 111 -92v176h125q-46 -575 -48 -781
q-1 -42 0 -74.5t4.5 -55.5t13.5 -36.5t27 -16.5q109 -19 202 113q58 82 95.5 193.5t44.5 237.5t-33 242q-51 148 -152 257.5t-239 168.5q-136 58 -286.5 54.5t-287.5 -67.5q-174 -81 -307 -251.5t-181.5 -382t24.5 -431.5q55 -155 169 -267.5t267 -161.5q168 -55 346.5 -26
t336.5 137l11 7l44 -43l-15 -11q-229 -170 -517 -170q-133 0 -251 36q-177 54 -307 174t-189 285q-46 128 -47.5 266.5t39.5 269t116.5 249t187.5 216.5t248 162q159 76 327 82.5t322 -56.5q151 -62 265 -179.5t170 -271.5q46 -124 40.5 -253.5t-44 -243t-103.5 -206.5
q-68 -98 -155 -155t-171 -57h-2q-47 0 -78 37.5t-35 88.5zM1134 420q82 143 64 288t-126 212q-1 1 -3 2t-3 2l-6 3l-24 12q-47 19 -104 19q-59 0 -119 -24q-143 -58 -225 -203q-82 -142 -64 -287.5t125 -212.5q1 -1 7 -4q5 -3 29 -15q106 -42 224 6q141 57 225 202z" />
    <glyph glyph-name="A" unicode="A" 
d="M705 1309l540 -1309h-180l-178 474h-607l-179 -474h-113l539 1309h178zM300 527h567l-283 751z" />
    <glyph glyph-name="B" unicode="B" horiz-adv-x="1118" 
d="M645 693q90 -9 167.5 -34t141 -65.5t99.5 -102.5t36 -138q0 -88 -52 -157t-137 -110t-184.5 -62t-203.5 -21h-292h-136v1309h97v1h320q96 0 183.5 -18.5t161 -55t117.5 -99t44 -142.5q0 -123 -102 -200t-260 -105zM220 1268v-569l287 1h7q71 2 134 29q123 53 178 165
t9 219q-31 71 -101 112t-157 43h-357zM894 280q59 125 -3.5 232t-210.5 133q-7 2 -23 4q-77 13 -160 13h-277v-627h245q134 -2 255.5 67t173.5 178z" />
    <glyph glyph-name="C" unicode="C" horiz-adv-x="1249" 
d="M903 1172v1q1 -1 3 -2q0 1 -1 1h-2zM1010 417q26 49 42 94l167 4q-45 -224 -210 -369.5t-377 -145.5q-133 0 -254 62q-16 7 -36 20q-21 12 -28 18q-13 7 -31 24q-118 90 -185 230.5t-67 298.5q0 177 80.5 327.5t219 238t301.5 87.5q161 0 297 -86l3 -2h1q1 0 1 -1l2 -1
l3 -3q114 -74 189 -191t97 -259l-123 2q2 134 -45 242t-134 166l-4 3l-5 4l-5 2q-1 0 -2.5 1.5t-2.5 1.5l-32 17q-64 29 -138 29q-84 0 -168 -37q-95 -40 -175 -119.5t-137 -186.5q-114 -211 -88 -432t175 -322l9 -7q26 -16 42 -23q66 -29 138 -29q83 0 168 38
q93 40 173.5 118.5t138.5 185.5z" />
    <glyph glyph-name="D" unicode="D" horiz-adv-x="1163" 
d="M346 1306q779 0 779 -692q0 -146 -42 -264t-114 -193.5t-165 -115.5t-198 -40h-381h-141v1303q117 2 262 2zM457 42q97 0 179.5 31.5t140 86t98.5 128t60.5 157t19.5 173.5q0 135 -24 239t-56.5 171.5t-97 114t-113 69.5t-139 34.5t-141 13t-150.5 1.5h-14v-1219h237z
" />
    <glyph glyph-name="E" unicode="E" horiz-adv-x="1028" 
d="M1021 1258h-810v-579h732v-54h-732v-574h810v-49h-937v1305h937v-49z" />
    <glyph glyph-name="F" unicode="F" horiz-adv-x="1015" 
d="M1021 1260h-810v-579h732v-54h-732v-627h-127v1309h937v-49z" />
    <glyph glyph-name="G" unicode="G" horiz-adv-x="1249" 
d="M666 468v47h553q-46 -224 -210.5 -369t-376.5 -145q-133 0 -254 62q-12 5 -36 19l-7 5q-12 6 -21 14q-10 4 -31 23q-118 91 -185 231.5t-67 298.5q0 177 80.5 327.5t219 238t301.5 87.5q159 0 297 -86l2 -2l4 -2l1 -2l3 -1q113 -72 188 -191t98 -260l-123 3
q3 133 -45 241.5t-136 167.5q-2 1 -5 4q-2 2 -4 3h-1.5t-1.5 1t-2.5 2t-2.5 1l-33 17q-66 29 -137 29q-84 0 -168 -37q-95 -40 -175 -119.5t-137 -186.5q-75 -141 -90.5 -290.5t31.5 -273.5t147 -192q1 -1 4.5 -2.5t4.5 -2.5q19 -14 42 -23q66 -29 137 -29q81 0 168 38
q94 41 174.5 119t137.5 184q6 10 24 51h-368z" />
    <glyph glyph-name="H" unicode="H" horiz-adv-x="1157" 
d="M945 1309h127v-1309h-127v627h-734v-627h-127v1309h127v-628h734v628z" />
    <glyph glyph-name="I" unicode="I" horiz-adv-x="296" 
d="M211 0h-127v1308h127v-1308z" />
    <glyph glyph-name="J" unicode="J" horiz-adv-x="831" 
d="M628 1308h133v-775q0 -89 -13.5 -166t-45 -145.5t-79 -117t-119 -76.5t-162.5 -28q-133 0 -221.5 74t-130.5 196q51 26 93 46l1 1q13 -52 33.5 -95t51.5 -80t76 -57.5t101 -20.5q67 0 118.5 31t82 78t50 110t26 119t6.5 112z" />
    <glyph glyph-name="K" unicode="K" horiz-adv-x="1120" 
d="M1127 1258q-62 0 -113 -27.5t-103 -79.5l-424 -447l640 -704h-225l-505 614q-89 -90 -137.5 -207.5t-48.5 -244.5v-162h-127v1308h127v-795l704 745h-79v50h291v-50z" />
    <glyph glyph-name="L" unicode="L" horiz-adv-x="923" 
d="M211 54h732v-54h-859v1309h127v-1255z" />
    <glyph glyph-name="M" unicode="M" horiz-adv-x="1458" 
d="M1226 1308l212 -1307h-191l-102 1264l-357 -1264h-127l-367 1264l-92 -1264h-182l212 1307l138 3l359 -1179l363 1179z" />
    <glyph glyph-name="N" unicode="N" horiz-adv-x="1155" 
d="M944 1309h126v-1309h-126l-733 1204v-1204h-127v1309h127l733 -1205v1205z" />
    <glyph glyph-name="O" unicode="O" horiz-adv-x="1271" 
d="M944 1214q137 -88 217 -238.5t80 -322.5q0 -133 -48 -253.5t-129.5 -208t-193.5 -139.5t-235 -52q-133 0 -255 62q-27 14 -36 19q-14 8 -28 19q-18 10 -32 23q-119 91 -186 231.5t-67 298.5q0 133 48 253.5t128.5 208t192.5 139.5t235 52q162 0 300 -86l3 -2h1l3 -3h1z
M1006 423q73 138 87.5 284.5t-31 266.5t-142.5 185l-9 6l-2 2h-2q-1 1 -3 2l-2 1l-32 18q-61 27 -134 27q-82 0 -165 -36q-191 -83 -306 -297q-73 -135 -87 -281.5t32 -267.5t141 -185l9 -7q22 -14 41 -23q63 -27 135 -27q82 0 164 36q91 38 170.5 115t135.5 181z" />
    <glyph glyph-name="P" unicode="P" horiz-adv-x="1011" 
d="M500 1307q96 0 183 -18.5t160.5 -55t117 -98.5t43.5 -142q0 -133 -127.5 -234t-309.5 -101h-347v-656h-136v1305h96h320zM646 725q122 53 177 165t9 218q-31 71 -100.5 111.5t-156.5 42.5h-355v-566h286h6q71 2 134 29z" />
    <glyph glyph-name="Q" unicode="Q" horiz-adv-x="1298" 
d="M1049 188l250 -213l-57 -34l-264 186q-154 -114 -342 -114q-135 0 -256 61q-19 9 -36 20q-18 10 -28 18q-13 7 -31 24q-119 91 -186.5 231.5t-67.5 298.5q0 178 81 328.5t220.5 238t303.5 87.5q162 0 300 -86l3 -2h1l3 -3l1 -1h1q138 -88 217.5 -238.5t79.5 -323.5
q0 -139 -51 -263t-142 -215zM915 302q53 61 92 134q74 138 88.5 284.5t-31.5 266.5t-143 185l-9 6l-3 3h-1q-1 1 -3 2l-2 1l-32 18q-61 27 -135 27q-81 0 -164 -36q-93 -40 -171.5 -117t-134.5 -181q-73 -135 -87.5 -281.5t31 -268t141.5 -185.5l10 -7q17 -11 41 -22
q63 -27 134 -27q82 0 165 36q74 33 137 85l-149 103l104 78z" />
    <glyph glyph-name="R" unicode="R" horiz-adv-x="1048" 
d="M602 659q402 -123 402 -653v-3h-150v6q0 132 -21 235t-51 170.5t-84.5 114.5t-100.5 70.5t-121.5 36t-124.5 14.5t-131 2v-649h-136v1304h96h320q96 0 183 -18t160.5 -54.5t117 -98.5t43.5 -142q0 -127 -116 -226t-286 -109zM380 696h132q71 2 134 29q123 53 177.5 165
t8.5 219q-31 71 -100.5 111t-156.5 42h-355v-567z" />
    <glyph glyph-name="S" unicode="S" horiz-adv-x="1034" 
d="M553 710q52 -20 79.5 -31t75.5 -31t74.5 -35.5t63.5 -38.5t58 -45.5t42 -50.5t30.5 -60.5t10.5 -68.5q0 -17 -1.5 -37t-10 -55t-24 -66t-46 -66.5t-72 -61t-107 -43.5t-146.5 -20h-23q-114 0 -209 31t-158.5 83.5t-104 114.5t-60.5 132h156q119 -307 390 -307h13
q138 5 206 58t66 156q-2 104 -78 175.5t-273 155.5q-3 1 -8.5 3.5t-8.5 3.5q-1 0 -11 4.5t-15 5.5q-78 31 -128.5 53.5t-106 55.5t-87.5 65.5t-54 77.5t-23 98q-1 26 3 57.5t26.5 86t61.5 94.5q103 105 300 105q90 0 167 -17t130 -44t96 -64t68.5 -72.5t45 -75t27 -65.5
t12.5 -50h-144q-11 38 -26 74t-48.5 84t-76 83t-111.5 59.5t-152 24.5q-107 0 -182.5 -57.5t-75.5 -139.5q0 -97 69.5 -169t230.5 -143v-1h4q12 -5 34.5 -14t30.5 -12z" />
    <glyph glyph-name="T" unicode="T" horiz-adv-x="985" 
d="M-23 1309h1030v-55h-448v-1254h-128v1254h-454v55z" />
    <glyph glyph-name="U" unicode="U" horiz-adv-x="1132" 
d="M929 1309h146q-9 -395 -9 -721q0 -113 -30 -210t-79.5 -165t-114 -116.5t-134.5 -72t-140 -24.5h-4q-70 1 -140 24.5t-134.5 72t-114 116.5t-79.5 165t-30 210q0 145 -2 325.5t-4 288.5l-3 107h146v-615q0 -306 85.5 -453t277.5 -151q191 4 277 154t86 450v615z" />
    <glyph glyph-name="V" unicode="V" horiz-adv-x="1134" 
d="M1039 1308h104l-495 -1308h-163l-495 1308h165l441 -1278z" />
    <glyph glyph-name="W" unicode="W" horiz-adv-x="1712" 
d="M1539 1307h181l-445 -1307h-155l-264 1123l-268 -1123h-152l-444 1307h191l335 -1264l279 1264h127l289 -1264z" />
    <glyph glyph-name="X" unicode="X" horiz-adv-x="999" 
d="M540 637l464 -637h-182l-336 590l-342 -590h-146l433 637l-433 672h139l349 -625l380 625h101z" />
    <glyph glyph-name="Y" unicode="Y" horiz-adv-x="1107" 
d="M1027 1309h103l-513 -762v-547h-127v547l-513 762h165l440 -715l2 -3l1 3z" />
    <glyph glyph-name="Z" unicode="Z" horiz-adv-x="1011" 
d="M1001 1308v-135l-821 -1071h821v-102h-993v100l915 1102h-915v106h993z" />
    <glyph glyph-name="bracketleft" unicode="[" horiz-adv-x="294" 
d="M452 1387h-241v-1558h241v-54h-368v1669h368v-57z" />
    <glyph glyph-name="backslash" unicode="\" horiz-adv-x="624" 
d="M260 1351l350 -1351h-99l-433 1351h182z" />
    <glyph glyph-name="bracketright" unicode="]" horiz-adv-x="294" 
d="M83 1387h-241v57h368v-1669h-368v54h241v1558z" />
    <glyph glyph-name="asciicircum" unicode="^" horiz-adv-x="784" 
d="M757 645h-110l-252 526l-261 -526h-109l278 705h186z" />
    <glyph glyph-name="underscore" unicode="_" horiz-adv-x="1232" 
d="M1149 -188h-1065v91h1065v-91z" />
    <glyph glyph-name="grave" unicode="`" horiz-adv-x="315" 
d="M148 1371l143 -259h-110l-214 259h181z" />
    <glyph glyph-name="a" unicode="a" horiz-adv-x="1042" 
d="M842 948h124v-948h-124v163q-65 -74 -155.5 -116t-192.5 -42q-101 0 -194 44q-19 8 -29 14q-16 9 -20 12q-9 5 -25 17q-89 63 -141 162t-52 213q0 126 62 232.5t168 168.5t231 62q122 0 230 -62q1 0 2 -1q5 -2 5 -3q62 -37 111 -92v176zM772 312q82 143 64 288t-126 212
q-1 1 -3 2t-3 2l-6 3l-23 12q-47 19 -105 19t-120 -25q-142 -58 -224 -202q-82 -142 -64 -287.5t125 -212.5q2 -2 6 -4q10 -6 30 -16q104 -42 224 7q141 57 225 202z" />
    <glyph glyph-name="b" unicode="b" horiz-adv-x="1034" 
d="M776 862q102 -61 163 -166.5t61 -229.5q0 -125 -61.5 -231t-167 -167.5t-229.5 -61.5q-106 0 -193 42q-4 1 -28 15q-16 9 -20 13q-9 4 -25 16q-41 29 -75 68v-160h-125v1308h125v-535q63 73 152 114t189 41q122 0 227 -61q1 0 2 -1l2 -2q2 -1 3 -2zM810 311
q53 93 63.5 192.5t-22.5 181.5t-103 125q-2 1 -6 5l-6 3l-23 11q-45 19 -96 19q-59 0 -119 -24q-143 -59 -223 -202q-82 -142 -64 -287.5t125 -212.5q1 -1 3 -2.5t3 -1.5q13 -8 30 -14q99 -42 214 5q137 53 224 202z" />
    <glyph glyph-name="c" unicode="c" horiz-adv-x="983" 
d="M765 306q16 27 32 68h152q-31 -161 -159 -267.5t-295 -106.5q-102 0 -195 44q-4 2 -8.5 4t-10.5 5t-9 5q-16 9 -20 12q-13 6 -26 17q-90 63 -141.5 161.5t-51.5 213.5q0 125 62 231.5t168.5 168.5t231.5 62q124 0 229 -61q1 0 2 -1q0 -1 2 -2.5t3 -1.5q89 -52 147 -138
t74 -190h-121q3 89 -30 162.5t-98 114.5q-4 3 -12 7l6 -3l1 -1q2 0 2 -1q0 1 -1 1t-2 1l-6 3l-24 12q-42 18 -97 18q-58 0 -120 -24q-140 -55 -224 -203q-82 -142 -64 -287t125 -212q1 0 3.5 -2t3.5 -3q17 -10 29 -15q99 -42 217 6q138 54 225 202z" />
    <glyph glyph-name="d" unicode="d" horiz-adv-x="1036" 
d="M837 1308h123v-1308h-123v162q-64 -72 -153.5 -113t-190.5 -41q-102 0 -193 43q-19 8 -29 14q-1 0 -8.5 4.5t-11.5 8.5q-5 2 -14 9t-11 8q-89 63 -141 161t-52 212q0 191 135 326t325 135q124 0 229 -61q1 0 2 -1l2 -1l3 -3q62 -37 108 -89v534zM762 313q54 93 65 192.5
t-22 181t-103 124.5q-6 3 -8 5q-1 0 -2.5 1t-2.5 2l-24 12q-42 18 -97 18q-58 0 -119 -24q-140 -56 -224 -202q-81 -142 -63 -286.5t125 -211.5l3 -3t3 -2q9 -6 29 -14q99 -42 216 6q67 26 125 78t99 123z" />
    <glyph glyph-name="e" unicode="e" horiz-adv-x="983" 
d="M765 306q19 35 32 68h152q-31 -161 -159 -267.5t-296 -106.5q-101 0 -194 44q-9 4 -29 14q-2 1 -9 5t-10 7q-3 2 -26 17q-89 63 -141 162t-52 213q0 126 62 232.5t168 168t231 61.5t230 -61q1 0 2 -1q4 -2 6 -4q88 -52 146 -138.5t74 -190.5h-767q-44 -124 -16 -240
t118 -172q1 -1 7 -4q9 -6 29 -15q103 -41 217 6q139 56 225 202zM226 617q-16 -28 -20 -37h623q-13 157 -125 227q-6 3 -7 4t-3.5 2t-3.5 1l-23 11q-44 19 -97 19q-58 0 -120 -24q-141 -57 -224 -203z" />
    <glyph glyph-name="f" unicode="f" horiz-adv-x="538" 
d="M519 1312q162 0 262 -115q-44 -33 -70 -54q-76 105 -196 105q-56 0 -101.5 -21.5t-75.5 -58t-51.5 -80.5t-33 -95t-16.5 -95t-5 -86v-8h305v-49h-305l1 -755h-122v755h-84v49h86v24q0 50 12 109t42.5 126.5t74.5 122t116.5 90.5t160.5 36z" />
    <glyph glyph-name="g" unicode="g" horiz-adv-x="860" 
d="M636 99q92 -37 147 -102t55 -142q3 -63 -35 -118.5t-102.5 -91.5t-141.5 -57t-158.5 -18.5t-147.5 27.5q-31 10 -44 17q-8 2 -22 10q-70 35 -112.5 82.5t-54.5 96.5t2.5 99.5t51.5 91t100 69.5t142 38q-161 17 -236 99q-55 61 -32 120q16 39 64 60q-48 79 -53.5 164.5
t24.5 158t88 131t130 89t158 26.5t165 -51l8 -5q0 1 1 1t2 1q70 46 163 54q11 -37 19 -82q1 0 1 -2q-73 -2 -121 -20q67 -61 97.5 -152t15.5 -187t-74 -166q-73 -101 -208 -134.5t-250 23.5q-4 1 -23 11q-15 9 -17 11q-4 2 -20 13q-54 38 -88 88q-42 -17 -43 -51
q-1 -40 29.5 -69t84 -45t102 -24.5t109.5 -15.5t81 -11q89 -16 117 -28h1l18 -6h3q1 0 2 -1zM578 868q-50 17 -99.5 15t-92.5 -24t-82 -55.5t-66.5 -78t-47.5 -92t-25 -98t2 -95.5t32.5 -85t67.5 -66l6 -3q4 -2 23 -12q89 -37 187.5 8.5t157.5 134.5q23 33 38 70
q36 83 32.5 165.5t-44.5 141.5q-21 34 -55 55q-4 2 -7 5l2 -2q-1 1 -3.5 2.5t-3.5 2.5t-3 1zM666 -241q73 88 56.5 177.5t-111.5 130.5q-52 21 -95 22l-23 1q-58 0 -107 -15q-61 -12 -117.5 -50t-91.5 -89t-48 -105t15 -105.5t96 -82.5l6 -3q4 -1 8.5 -2.5t10 -3.5t8.5 -3
q96 -29 212.5 9.5t180.5 118.5z" />
    <glyph glyph-name="h" unicode="h" horiz-adv-x="985" 
d="M201 0h-125v1308h127v-521q5 6 14 15.5t39 34t63.5 43t85.5 34t105 15.5q71 0 145.5 -33t134.5 -88t98.5 -133.5t38.5 -162.5l7 -512h-121v436q0 115 -35 211.5t-106.5 157t-166.5 60.5q-145 0 -224.5 -121t-79.5 -323v-421z" />
    <glyph glyph-name="i" unicode="i" horiz-adv-x="282" 
d="M204 0h-127v948h127v-948zM140 1117q-34 0 -57.5 23.5t-23.5 57.5t23.5 57.5t57.5 23.5t57.5 -23.5t23.5 -57.5t-23.5 -57.5t-57.5 -23.5z" />
    <glyph glyph-name="j" unicode="j" horiz-adv-x="278" 
d="M77 138v812h126v-828q0 -51 -13 -112t-40.5 -128.5t-79.5 -125.5t-120 -88l-52 57q53 24 90.5 73.5t55.5 111.5t25.5 117t7.5 111zM144 1119q-34 0 -57.5 23.5t-23.5 57.5t23.5 57.5t57.5 23.5t57.5 -23.5t23.5 -57.5t-23.5 -57.5t-57.5 -23.5z" />
    <glyph glyph-name="k" unicode="k" horiz-adv-x="890" 
d="M366 590l526 -590h-179l-437 501q-74 -74 -74 -179v-322h-126v1308h126v-810l375 374h-81v50h291v-50q-139 0 -237 -98z" />
    <glyph glyph-name="l" unicode="l" horiz-adv-x="280" 
d="M203 0h-127v1308h127v-1308z" />
    <glyph glyph-name="m" unicode="m" horiz-adv-x="1609" 
d="M1166 929q79 0 144 -28t109.5 -75.5t75 -111t44.5 -132.5t14 -142v-440h-108q2 253 2 419q0 55 -7 110.5t-27 117.5t-50.5 109t-82.5 78t-119 31q-56 0 -101.5 -21.5t-75.5 -58t-51.5 -80.5t-33 -95t-16.5 -95t-5 -86l1 -429h-110q1 253 1 419q0 37 -4 72
q-4 53 -14.5 102t-32.5 100t-52 88t-77.5 60.5t-105.5 23.5q-52 0 -95.5 -19t-73 -52t-51.5 -73t-34.5 -87.5t-18.5 -89.5t-8 -85q-1 -11 -1 -30l1 -429h-127v948h127v-159q109 140 286 140q121 0 205.5 -62t130.5 -167q49 101 133.5 165t207.5 64z" />
    <glyph glyph-name="n" unicode="n" horiz-adv-x="985" 
d="M201 0h-125v948h127v-161q5 6 13.5 15.5t39 34t63.5 43t85 34t105 15.5q71 0 145.5 -33t135 -88t99 -133.5t38.5 -162.5l7 -512h-121v436q0 115 -35 211.5t-106.5 157t-166.5 60.5q-145 0 -224.5 -121t-79.5 -323v-421z" />
    <glyph glyph-name="o" unicode="o" horiz-adv-x="1009" 
d="M746 876q105 -62 167.5 -170t62.5 -235q0 -128 -63.5 -236.5t-172 -171.5t-236.5 -63q-105 0 -198 45q-10 4 -30 14q-9 5 -20 13q-18 10 -26 17q-91 64 -144 164.5t-53 217.5q0 195 138.5 333.5t332.5 138.5q125 0 234 -63q1 0 2 -1l2 -1q3 -1 4 -2zM780 312
q84 146 65.5 294.5t-128.5 216.5q-5 4 -13 7l-24 12q-45 19 -99 19q-62 0 -122 -25q-145 -58 -229 -206q-55 -95 -66.5 -196.5t22.5 -185t106 -128.5q1 0 3.5 -2t3.5 -3q9 -6 30 -15q103 -42 221 6q142 56 230 206z" />
    <glyph glyph-name="p" unicode="p" horiz-adv-x="1062" 
d="M797 902q106 -62 168.5 -170t62.5 -235q0 -128 -63.5 -236.5t-172 -171.5t-236.5 -63q-108 0 -199 44l-30 15q-15 8 -20 13q-11 5 -25 17q-44 30 -78 69v-594h-128v1386h128v-164q66 74 157.5 116t194.5 42q125 0 234 -63h2zM831 338q84 146 66 294.5t-128 216.5
q-2 1 -7 6q-1 1 -3.5 1.5t-3.5 0.5l-23 12q-45 19 -99 19q-62 0 -122 -25q-146 -58 -230 -206q-56 -95 -67 -197t23 -185.5t106 -128.5q1 0 3.5 -2t3.5 -3q16 -9 31 -15q102 -42 220 6q142 56 230 206z" />
    <glyph glyph-name="q" unicode="q" horiz-adv-x="1050" 
d="M845 977h129v-1387h-129v603q-65 -74 -155 -115.5t-192 -41.5q-100 0 -196 45q-5 2 -29 14q-16 9 -20 12q-11 5 -25 17q-90 63 -142.5 163t-52.5 214q0 126 62.5 233.5t169.5 169.5t233 62q125 0 230 -61q2 0 3 -1q1 0 3 -2q2 0 2 -1q59 -35 109 -91v167zM769 345
q82 143 64 289.5t-126 213.5q-1 0 -3 2l-3 3l-6 3l-24 11q-44 19 -97 19q-56 0 -120 -25q-142 -55 -227 -203q-83 -143 -64.5 -289.5t126.5 -213.5q1 -1 3 -2.5t3 -1.5q15 -9 30 -15q102 -42 219 6q67 26 125 79t100 124z" />
    <glyph glyph-name="r" unicode="r" horiz-adv-x="806" 
d="M422 916q97 26 200.5 6t187.5 -83l-85 -86q-61 66 -136.5 95t-149.5 11q-4 0 -8 -2q-1 -1 -3 -1h-3l-26 -9q-20 -7 -44 -23q-5 -2 -14.5 -8t-34 -32.5t-44 -63t-38 -105t-23.5 -153.5v-462h-125v948h125v-161q2 3 7 8q88 88 206 118q0 2 1 2t3.5 0.5t3.5 0.5z" />
    <glyph glyph-name="s" unicode="s" horiz-adv-x="849" 
d="M406 533q16 -6 53.5 -19t56 -19.5t53 -20t53 -22.5t46.5 -24t44 -28t35 -30.5t29 -35.5t17 -40t8 -46q1 -28 -5.5 -58t-28 -66t-55.5 -64t-95.5 -48t-141.5 -22q-84 -2 -155 14.5t-118.5 44.5t-84.5 66t-57 74.5t-31 75.5h141q93 -225 307 -219q108 3 157 39.5t47 104.5
q-1 72 -59.5 122t-208.5 108l-33 12q-42 15 -67 24.5t-62.5 26t-60.5 30t-50 33.5t-41.5 40.5t-25 47t-11.5 56.5q-1 28 5.5 58t27 66t54 64t92.5 47t136 19q87 0 159 -19t119.5 -49t82 -70t52 -78.5t24.5 -78.5h-131q-4 13 -7 22t-15 35.5t-26 46.5t-39.5 46t-56 42.5
t-75.5 28.5t-97 12q-80 0 -136 -39.5t-56 -92.5q0 -67 53 -116.5t176 -99.5q1 0 2 -1z" />
    <glyph glyph-name="t" unicode="t" horiz-adv-x="790" 
d="M722 169q23 -19 69 -55q-101 -114 -261 -114q-89 0 -162 35.5t-119.5 92t-78.5 130t-45.5 145.5t-13.5 142v309h-101v49h101v405h132v-405h278v-49h-278v-120.5v-148.5v-85q0 -42 5 -86t16.5 -95t33 -95t51.5 -80.5t75.5 -58t101.5 -21.5q121 0 196 105z" />
    <glyph glyph-name="u" unicode="u" horiz-adv-x="987" 
d="M786 948h125v-948h-127v160q-5 -6 -13.5 -15.5t-39 -33.5t-63.5 -43t-85 -34t-105 -15q-58 0 -116.5 16.5t-113 51t-96.5 82.5t-67 117.5t-25 149.5l-7 512h122v-437q0 -119 29.5 -212.5t100.5 -155t177 -61.5q145 0 224.5 121t79.5 323v422z" />
    <glyph glyph-name="v" unicode="v" horiz-adv-x="880" 
d="M787 947h93l-359 -947h-163l-358 947h153l317 -917z" />
    <glyph glyph-name="w" unicode="w" horiz-adv-x="1394" 
d="M1239 947h154l-358 -947h-126l-213 814l-215 -814h-123l-358 947h154l262 -916l225 916h111l224 -916z" />
    <glyph glyph-name="x" unicode="x" horiz-adv-x="774" 
d="M9 0l314 456l-319 492h124l251 -445l272 445h97l-316 -492l337 -456h-154l-236 409l-241 -409h-129z" />
    <glyph glyph-name="y" unicode="y" horiz-adv-x="878" 
d="M785 946h92l-527 -1384h-77l145 387l-420 997h153l328 -831z" />
    <glyph glyph-name="z" unicode="z" horiz-adv-x="866" 
d="M845 948v-98l-651 -732h651v-118h-829v72l764 776h-764v100h829z" />
    <glyph glyph-name="braceleft" unicode="{" horiz-adv-x="403" 
d="M330 1105q0 -53 -13.5 -115.5t-42 -131t-81.5 -128t-123 -90.5q70 -31 123 -90.5t81.5 -128.5t42 -131.5t13.5 -115.5v-150q0 -155 208 -155v-91q-6 -1 -17.5 -2t-43.5 -0.5t-61.5 5.5t-65.5 20t-62 38.5t-43.5 65t-17.5 96.5q1 0 1 157q0 54 -10.5 113.5t-33 121.5
t-64 113t-95.5 75v117q54 24 95.5 75.5t64 113.5t33 121.5t10.5 113.5q0 156 -1 156q0 55 17 97t44.5 65t60.5 38.5t66.5 20t61 6t44.5 -0.5l17 -2v-92q-61 0 -104.5 -13.5t-64.5 -37.5t-30 -49t-9 -55v-4v-146z" />
    <glyph glyph-name="verticalbar" unicode="|" horiz-adv-x="294" 
d="M211 -349h-127v1719h127v-1719z" />
    <glyph glyph-name="braceright" unicode="}" horiz-adv-x="403" 
d="M175 1122q0 -54 10.5 -113.5t33 -121.5t64 -113.5t95.5 -75.5v-116q-54 -24 -95.5 -75.5t-64 -113.5t-33 -121.5t-10.5 -113.5l1 -157q0 -55 -17 -96.5t-44.5 -65t-60.5 -38.5t-66.5 -19.5t-61 -6t-44.5 0.5l-17 2v92q208 0 208 155v150q0 53 13.5 115.5t41.5 131t81 128
t123 90.5q-70 31 -123 90.5t-81 128.5t-41.5 131.5t-13.5 115.5v145v5q0 30 -9 54.5t-30 48.5t-64.5 37.5t-104.5 13.5v92q6 1 17.5 2t43.5 0.5t61.5 -5.5t65.5 -20t62 -38.5t43.5 -65t17.5 -96.5q-1 0 -1 -157z" />
    <glyph glyph-name="asciitilde" unicode="~" horiz-adv-x="960" 
d="M723 449q152 -1 204 77l-1 -145q-11 -5 -29.5 -13.5t-72 -22t-101.5 -13.5q-65 0 -124.5 9.5t-90 18.5t-75.5 25q-40 14 -57 19.5t-52 11.5t-72 6t-70 -6.5t-58.5 -18.5t-41 -21.5t-32 -22t-17.5 -13.5v137q-1 6 34.5 20.5t89.5 28t95 13.5q58 0 112.5 -9.5t80 -17.5
t72.5 -24q38 -13 60 -20t61.5 -13t84.5 -6z" />
    <glyph glyph-name="nonbreakingspace" unicode="&#xa0;" horiz-adv-x="815" 
 />
    <glyph glyph-name="exclamdown" unicode="&#xa1;" horiz-adv-x="303" 
d="M108 991h88l34 -986h-160zM152 1151q-34 0 -57.5 23.5t-23.5 57.5t23.5 57.5t57.5 23.5t57.5 -23.5t23.5 -57.5t-23.5 -57.5t-57.5 -23.5z" />
    <glyph glyph-name="cent" unicode="&#xa2;" horiz-adv-x="1003" 
d="M773 302q16 27 32 68h152q-31 -161 -159 -267.5t-295 -106.5q-24 0 -68 6l-94 -331l-72 -17l90 366q-34 12 -50 20q-5 2 -29 14q-16 9 -20 12q-11 5 -25 17q-90 63 -142 162t-52 213q0 125 62 231.5t168.5 168.5t231.5 62q33 0 77 -7l78 315l135 34l-108 -380
q32 -14 47 -23q1 0 2 -1l3 -2l3 -2q88 -52 146 -138t74 -190h-121q3 89 -30 162.5t-98 114.5q-4 3 -12 7l6 -3l1 -1q2 0 2 -1q0 1 -1 1t-2 1l-6 3l-24 12q-1 0 -3 1t-3 1l-212 -746q51 5 91 22q138 54 225 202zM332 94q15 -6 43 -12l186 757q-52 -3 -102 -23
q-141 -56 -225 -203q-82 -142 -64 -287t125 -212q1 0 3.5 -2t3.5 -3q15 -9 30 -15z" />
    <glyph glyph-name="sterling" unicode="&#xa3;" horiz-adv-x="1024" 
d="M955 186l38 -138q-7 -5 -21 -12t-60 -20t-97 -16t-130.5 11t-161.5 50t-157.5 49t-125.5 5t-88 -21t-56 -26l-17 -14l-46 83q5 3 13.5 9t34.5 25.5t50.5 40.5t56 54t56.5 66t47 75t32.5 84t8 90.5t-21.5 95.5h-214v66h178q-11 18 -28 38q-117 139 -85 316q20 106 100 176
l3 3q91 77 233 77q99 0 178 -30t125.5 -71.5t80.5 -98.5t47 -97.5t21 -81.5h-128q-8 29 -19 57.5t-37 70.5t-59 74t-88 60t-121 37q-83 12 -143.5 -10.5t-87 -72t-26.5 -113.5t36.5 -141t103.5 -150q14 -15 34 -43h273v-66h-233q25 -53 28 -108.5t-11 -101.5t-39.5 -90.5
t-53.5 -77.5t-57.5 -61t-47.5 -42t-28 -20q-8 -6 1 -5q5 0 26 3q201 28 340 -20q60 -21 117.5 -25.5t96.5 4.5t69.5 20.5t44.5 22.5z" />
    <glyph glyph-name="currency" unicode="&#xa4;" horiz-adv-x="974" 
d="M834 628q0 -121 -80 -221l172 -208h-152l-97 136q-90 -60 -198 -60q-79 0 -150 33q-7 3 -21 11q-10 6 -16 10q-9 5 -19 13h-1v1l-87 -144h-152l175 202q-84 98 -84 227t88 230l-161 197h152l91 -128q88 54 185 54q92 0 175 -47l2 -1h1l2 -1v-1h1q14 -8 40 -28l92 152h152
l-184 -213q74 -96 74 -214zM517 344q111 44 179 160q66 114 51 229t-101 168l-6 4l-1 1h-1l-3 1l-19 10q-36 15 -78 15q-48 0 -97 -20q-113 -45 -179 -160q-65 -111 -50.5 -227.5t100.5 -169.5l6 -4q12 -7 24 -12q36 -15 78 -15q48 0 97 20z" />
    <glyph glyph-name="yen" unicode="&#xa5;" horiz-adv-x="1308" 
d="M1231 1309l-495 -735h292v-66h-310v-71h310v-66h-310v-371h-127v371h-310v66h310v71h-310v66h292l-495 735h165l440 -715h3l441 715h104z" />
    <glyph glyph-name="section" unicode="&#xa7;" horiz-adv-x="872" 
d="M804 459q1 -32 -7 -66.5t-28 -74t-62.5 -73t-101.5 -50.5q76 -41 119.5 -92t44.5 -123q1 -31 -5.5 -63t-27 -72t-53.5 -70.5t-92.5 -52.5t-137.5 -24q-100 -3 -181 24.5t-130.5 74.5t-79 97t-42.5 104h137q90 -245 298 -239q104 3 151.5 43t45.5 114q-1 78 -58 132.5
t-202 117.5q-4 1 -14.5 6t-16.5 7q-47 19 -76 32t-69.5 33.5t-65.5 41t-49.5 47t-36 59t-12.5 69.5q-1 33 7 68t28 75t62.5 72.5t101.5 47.5q-160 86 -163 216q0 21 2.5 43.5t11.5 50t22.5 52.5t37.5 49.5t55 42t76.5 28.5t99.5 11q104 0 185.5 -30.5t129.5 -80.5t74.5 -103
t34.5 -108h-127q-4 16 -6.5 24.5t-14.5 38.5t-25.5 50.5t-39 49.5t-54.5 47t-73 31t-94 13q-78 0 -131.5 -42.5t-53.5 -101.5q0 -73 51 -127t171 -108l1 -1q16 -6 58 -22.5t60.5 -24.5t56 -24.5t56 -28.5t47 -30.5t43.5 -36t31 -40t23 -48.5t8 -55zM510 240q94 7 137 46
t41 109q-1 78 -58 133t-202 118q-2 1 -14 6t-18 7q-4 1 -11.5 4t-11.5 5q-4 0 -12 1t-13 1q-78 0 -132 -43t-54 -101q0 -73 51 -127.5t171 -108.5h2q58 -23 124 -50z" />
    <glyph glyph-name="dieresis" unicode="&#xa8;" horiz-adv-x="542" 
d="M108 1322q33 0 57 -24t24 -57t-24 -57t-57 -24t-57 24t-24 57t24 57t57 24zM435 1322q33 0 57 -24t24 -57t-24 -57t-57 -24t-57 24t-24 57t24 57t57 24z" />
    <glyph glyph-name="copyright" unicode="&#xa9;" horiz-adv-x="1359" 
d="M839 914q1 0 2.5 -1t2.5 -2q0 -1 1 -1t2 -1l-1 1q-2 0 -2 1q-1 1 -2.5 2t-2.5 1l-19 9q-36 15 -78 15q-45 0 -96 -20q-55 -22 -102 -64t-79 -99q-67 -114 -52 -231t101 -170q1 0 3 -2t3 -2l8 -4t8.5 -4.5t7.5 -3.5q81 -33 174 5q112 45 181 162q15 28 26 55h122
q-25 -129 -127.5 -215t-237.5 -86q-84 0 -157 35q-4 2 -23 11q-9 5 -16 11q-9 5 -20 13q-72 51 -114 130.5t-42 171.5q0 154 109 262.5t263 108.5q99 0 184 -49q1 0 2 -1t4 -3q71 -42 118 -111t60 -153h-98q3 72 -24 131.5t-79 91.5q-6 4 -10 6zM680 1261q171 0 316.5 -84.5
t230 -229.5t84.5 -316q0 -128 -50 -245t-134.5 -201.5t-201.5 -134.5t-245 -50t-245 50t-201.5 134.5t-134.5 201.5t-50 245q0 171 84.5 316t230 229.5t316.5 84.5zM680 58q155 0 287 77t208.5 209t76.5 287t-76.5 287t-208.5 208.5t-287 76.5t-287 -76.5t-209 -208.5
t-77 -287t77 -287t209 -209t287 -77z" />
    <glyph glyph-name="guillemotleft" unicode="&#xab;" horiz-adv-x="813" 
d="M459 841l-318 -390l318 -390h-153l-274 387h-3l1 3l-1 2h3l274 388h153zM790 841l-318 -390l318 -390h-153l-274 387h-3l1 3l-1 2h3l274 388h153z" />
    <glyph glyph-name="softhyphen" unicode="&#xad;" horiz-adv-x="0" 
 />
    <glyph glyph-name="registered" unicode="&#xae;" horiz-adv-x="1359" 
d="M947 821q0 -71 -65.5 -126.5t-160.5 -61.5q226 -69 226 -366v-2h-84v3q0 58 -7 106t-18 83t-30.5 62.5t-37 45.5t-46 30.5t-50 19t-55.5 10t-55 4t-57 0.5v-364h-76v731h54h179q73 0 135 -17t105 -58t43 -100zM746 670q69 29 99.5 92t5.5 123q-17 40 -56.5 62t-88.5 24
h-199v-318l90 1h74q37 0 75 16zM680 1261q171 0 316.5 -84.5t230 -229.5t84.5 -316q0 -128 -50 -245t-134.5 -201.5t-201.5 -134.5t-245 -50t-245 50t-201.5 134.5t-134.5 201.5t-50 245q0 171 84.5 316t230 229.5t316.5 84.5zM680 58q155 0 287 77t208.5 209t76.5 287
t-76.5 287t-208.5 208.5t-287 76.5t-287 -76.5t-209 -208.5t-77 -287t77 -287t209 -209t287 -77z" />
    <glyph glyph-name="degree" unicode="&#xb0;" horiz-adv-x="542" 
d="M389 1250q52 -31 82 -84t30 -113q0 -95 -67.5 -162t-162.5 -67q-48 0 -97 22q-7 3 -14 7q-1 1 -4.5 2.5t-5.5 3.5q-5 3 -12 8q-45 32 -71 81.5t-26 104.5q0 95 67.5 162t162.5 67q63 0 114 -30l1 -1l2 -1h1zM412 972q43 73 33.5 148.5t-65.5 109.5l-4 3h-1h-1l-1 1l-13 7
q-24 9 -51 9q-31 0 -62 -12q-74 -30 -117 -105q-42 -72 -32.5 -147t65.5 -110l3 -3q3 -2 16 -7q27 -10 51 -10q33 0 63 13q72 28 116 103z" />
    <glyph glyph-name="plusminus" unicode="&#xb1;" horiz-adv-x="921" 
d="M508 676h383v-96h-383v-382h-95v382h-382v96h382v381h95v-381zM891 -26h-860v95h860v-95z" />
    <glyph glyph-name="acute" unicode="&#xb4;" horiz-adv-x="315" 
d="M167 1371h181l-214 -259h-109z" />
    <glyph glyph-name="paragraph" unicode="&#xb6;" horiz-adv-x="1048" 
d="M1015 1282v-127h-143v-1541h-127v1541h-226v-1541h-127v949q-148 0 -253.5 105.5t-105.5 253.5t105.5 253.5t253.5 105.5v1h623z" />
    <glyph glyph-name="cedilla" unicode="&#xb8;" horiz-adv-x="137" 
d="M62 126q74 -82 41 -165q-30 -78 -136 -113q-149 -49 -356 18q167 -98 240 -241q-27 -6 -69 -12q-13 -2 -45 -7t-49 -7q-25 83 -73.5 155t-114.5 119q-1 1 -3 2t-3 2q84 24 122 49q5 4 15.5 11t15.5 10q70 -19 127 -27.5t115 -7.5t99 23.5t60 66.5q19 47 -27 97z" />
    <glyph glyph-name="guillemotright" unicode="&#xbb;" horiz-adv-x="813" 
d="M783 453l-2 -2l2 -3h-3l-275 -387h-151l317 390l-317 390h151l275 -388h3zM452 448h-3l-274 -387h-152l317 390l-317 390h152l274 -388h3l-1 -2z" />
    <glyph glyph-name="questiondown" unicode="&#xbf;" horiz-adv-x="845" 
d="M510 1170q-34 0 -57.5 23.5t-23.5 57.5t23.5 57.5t57.5 23.5t57.5 -23.5t23.5 -57.5t-23.5 -57.5t-57.5 -23.5zM691 411h137q-1 -9 -2.5 -24t-13 -59t-29 -84t-53 -89t-81.5 -84t-118.5 -59t-160.5 -24q-141 0 -232 78l-2 1q-2 1 -2 2q-81 72 -100 177q-16 88 28.5 170
t127.5 148q126 100 173 148q142 146 115 297h72q16 -48 17.5 -94.5t-12 -88t-35 -79.5t-55 -75t-67 -67t-75.5 -62q-143 -109 -188 -239q-39 -113 17 -180q63 -74 212 -49q57 9 105.5 33t81 54t58.5 64.5t41 67t24.5 59t13.5 42.5z" />
    <glyph glyph-name="Agrave" unicode="&#xc0;" 
d="M705 1309l540 -1308h-180l-178 473h-607l-179 -473h-113l539 1308h178zM300 528h567l-283 751zM719 1385h-110l-214 258h181z" />
    <glyph glyph-name="Aacute" unicode="&#xc1;" 
d="M705 1309l540 -1308h-180l-178 473h-607l-179 -473h-113l539 1308h178zM300 528h567l-283 751zM802 1643l-214 -258h-110l143 258h181z" />
    <glyph glyph-name="Acircumflex" unicode="&#xc2;" 
d="M705 1309l540 -1308h-180l-178 473h-607l-179 -473h-113l539 1308h178zM300 528h567l-283 751zM587 1514l-129 -129h-110l148 218h186l137 -218h-110z" />
    <glyph glyph-name="Atilde" unicode="&#xc3;" 
d="M480 1500q-22 0 -41.5 -7t-35 -19.5t-24.5 -21.5t-19 -22l-10 -14l1 141q0 6 20.5 21t52.5 28.5t57 13.5q34 0 66 -9t49 -17.5t43 -24.5q23 -14 36 -20.5t36.5 -13t50.5 -6.5t49 8.5t34.5 18.5t22 23.5t12 19t3.5 9.5v-148q-6 -6 -17.5 -14.5t-43.5 -22.5t-61 -14
q-38 0 -74 9.5t-53 18.5t-45 26q-23 14 -34 19.5t-32 11.5t-43 6zM705 1309l540 -1308h-180l-178 473h-607l-179 -473h-113l539 1308h178zM300 528h567l-283 751z" />
    <glyph glyph-name="Adieresis" unicode="&#xc4;" 
d="M705 1309l540 -1308h-180l-178 473h-607l-179 -473h-113l539 1308h178zM300 528h567l-283 751zM428 1399q-34 0 -57.5 23.5t-23.5 57.5t23.5 57.5t57.5 23.5t57.5 -23.5t23.5 -57.5t-23.5 -57.5t-57.5 -23.5zM755 1399q-34 0 -57.5 23.5t-23.5 57.5t23.5 57.5t57.5 23.5
t57.5 -23.5t23.5 -57.5t-23.5 -57.5t-57.5 -23.5z" />
    <glyph glyph-name="Aring" unicode="&#xc5;" 
d="M705 1309l540 -1308h-180l-178 474h-607l-179 -474h-113l535 1298q-34 21 -53.5 55.5t-19.5 74.5q0 63 46 109.5t109 46.5t109.5 -46.5t46.5 -109.5q0 -72 -59 -120h3zM605 1507q-31 0 -54.5 -23.5t-23.5 -54.5t23 -54t55 -23t55 23t23 54t-23.5 54.5t-54.5 23.5z
M300 528h567l-282 748h-2z" />
    <glyph glyph-name="AE" unicode="&#xc6;" horiz-adv-x="1652" 
d="M1644 1257h-917l239 -578h601v-55h-579l237 -574h419v-49h-452h-127l-178 473h-607l-179 -473h-113l539 1308h178l2 -3h937v-49zM300 528h567l-283 751z" />
    <glyph glyph-name="Ccedilla" unicode="&#xc7;" horiz-adv-x="1249" 
d="M903 1172v1q1 -1 3 -2q0 1 -1 1h-2zM1010 417q20 38 42 95l167 3q-30 -148 -116 -265.5t-209 -182.5q41 -81 -10 -152t-171.5 -92.5t-300.5 31.5q165 -97 239 -241q-37 -9 -69 -13q-14 -2 -45 -7t-48 -7q-25 82 -74 155t-115 120q-1 1 -2.5 2t-2.5 2q82 24 121 49
q5 4 15.5 11t15.5 10q70 -19 127 -27.5t115 -7.5t99 23.5t60 66.5q11 27 1 55q-106 -45 -217 -45q-131 0 -254 63q-20 8 -36 19q-18 10 -28 19q-15 8 -31 23q-118 90 -185 230.5t-67 298.5q0 177 80.5 327.5t219 238t301.5 87.5q161 0 297 -86l3 -2h1q1 0 1 -1l2 -1l3 -2
q114 -74 189 -191.5t97 -259.5l-123 2q2 134 -45 242t-134 166l-4 3l-5 4l-5 3q-4 2 -5 2l-32 18q-64 29 -138 29q-81 0 -168 -38q-95 -40 -175 -119t-137 -186q-114 -211 -88 -432.5t175 -322.5l9 -7q26 -16 42 -23q66 -29 138 -29q83 0 168 38q93 40 173.5 118.5
t138.5 185.5z" />
    <glyph glyph-name="Egrave" unicode="&#xc8;" horiz-adv-x="1030" 
d="M1021 1257h-810v-578h732v-55h-732v-574h810v-49h-937v1305h937v-49zM714 1385h-110l-213 258h180z" />
    <glyph glyph-name="Eacute" unicode="&#xc9;" horiz-adv-x="1030" 
d="M1021 1257h-810v-578h732v-55h-732v-574h810v-49h-937v1305h937v-49zM792 1643l-214 -258h-110l143 258h181z" />
    <glyph glyph-name="Ecircumflex" unicode="&#xca;" horiz-adv-x="1030" 
d="M1021 1257h-810v-578h732v-55h-732v-574h810v-49h-937v1305h937v-49zM572 1514l-129 -129h-110l148 218h186l138 -218h-110z" />
    <glyph glyph-name="Edieresis" unicode="&#xcb;" horiz-adv-x="1030" 
d="M1021 1257h-810v-578h732v-55h-732v-574h810v-49h-937v1305h937v-49zM434 1399q-34 0 -57.5 23.5t-23.5 57.5t23.5 57.5t57.5 23.5t57.5 -23.5t23.5 -57.5t-23.5 -57.5t-57.5 -23.5zM761 1399q-33 0 -57 24t-24 57t24 57t57 24t57 -24t24 -57t-24 -57t-57 -24z" />
    <glyph glyph-name="Igrave" unicode="&#xcc;" horiz-adv-x="296" 
d="M212 -1h-127v1308h127v-1308zM248 1390h-110l-214 258h181z" />
    <glyph glyph-name="Iacute" unicode="&#xcd;" horiz-adv-x="294" 
d="M211 -1h-128v1308h128v-1308zM342 1643l-214 -258h-110l143 258h181z" />
    <glyph glyph-name="Icircumflex" unicode="&#xce;" horiz-adv-x="296" 
d="M211 -1h-127v1308h127v-1308zM246 1603l137 -218h-109l-123 129l-129 -129h-110l148 218h186z" />
    <glyph glyph-name="Idieresis" unicode="&#xcf;" horiz-adv-x="296" 
d="M212 -1h-127v1308h127v-1308zM-15 1399q-34 0 -57.5 23.5t-23.5 57.5t23.5 57.5t57.5 23.5t57.5 -23.5t23.5 -57.5t-23.5 -57.5t-57.5 -23.5zM312 1399q-34 0 -57.5 23.5t-23.5 57.5t23.5 57.5t57.5 23.5t57.5 -23.5t23.5 -57.5t-23.5 -57.5t-57.5 -23.5z" />
    <glyph glyph-name="Eth" unicode="&#xd0;" horiz-adv-x="1230" 
d="M413 1281q779 0 779 -692q0 -146 -42 -264t-114 -193.5t-165 -115.5t-198 -40h-380h-142v607h-137v82h137v613q117 3 262 3zM524 17q121 0 217.5 48t157 129t92 183t31.5 215q0 135 -24 239t-57 171.5t-97.5 114.5t-113 70t-139 34.5t-141.5 13t-151 1.5h-12v-571h385
v-82h-385v-566h237z" />
    <glyph glyph-name="Ntilde" unicode="&#xd1;" horiz-adv-x="1155" 
d="M456 1500q-19 0 -36.5 -5.5t-29.5 -13t-24.5 -18.5t-18.5 -19t-13.5 -17.5t-8.5 -10.5l1 141q0 6 20.5 21t52.5 28.5t57 13.5q34 0 66 -9t49 -17.5t43 -24.5q23 -14 36 -20.5t36.5 -13t50.5 -6.5t49 8t34.5 18.5t22.5 24t12.5 19t3.5 9.5l-1 -148q-6 -6 -17.5 -14.5
t-43.5 -22.5t-61 -14q-38 0 -74 9.5t-53 18.5t-45 26q-24 14 -34 19.5t-31 11.5t-43 6zM944 1308h126v-1309h-126v1l-733 1204v-1205h-127v1309h127l733 -1205v1205z" />
    <glyph glyph-name="Ograve" unicode="&#xd2;" horiz-adv-x="1271" 
d="M944 1214q137 -88 217 -238.5t80 -322.5q0 -133 -48 -253.5t-129.5 -208t-193.5 -139.5t-235 -52q-133 0 -255 62q-27 14 -36 19q-14 8 -28 19q-18 10 -32 23q-119 91 -186 231.5t-67 298.5q0 133 48 253.5t128.5 208t192.5 139.5t235 52q162 0 300 -86l3 -2h1l3 -3h1z
M1006 423q73 138 88 284.5t-30.5 266.5t-142.5 185l-10 6l-2 2h-2q-1 1 -3 2l-2 1l-32 18q-64 28 -134 28q-80 0 -165 -37q-191 -83 -306 -297q-73 -135 -87 -281.5t32 -267.5t141 -185l9 -7q17 -11 41 -22q65 -28 135 -28q82 0 164 36q91 38 170.5 115t135.5 181zM744 1385
h-109l-214 258h181z" />
    <glyph glyph-name="Oacute" unicode="&#xd3;" horiz-adv-x="1271" 
d="M944 1214q137 -88 217 -238.5t80 -322.5q0 -133 -48 -253.5t-129.5 -208t-193.5 -139.5t-235 -52q-133 0 -255 62q-27 14 -36 19q-14 8 -28 19q-18 10 -32 23q-119 91 -186 231.5t-67 298.5q0 133 48 253.5t128.5 208t192.5 139.5t235 52q162 0 300 -86l3 -2h1l3 -3h1z
M1006 423q73 138 88 284.5t-30.5 266.5t-142.5 185l-10 6l-2 2h-2q-1 1 -3 2l-2 1l-32 18q-64 28 -134 28q-80 0 -165 -37q-191 -83 -306 -297q-73 -135 -87 -281.5t32 -267.5t141 -185l9 -7q17 -11 41 -22q65 -28 135 -28q82 0 164 36q91 38 170.5 115t135.5 181zM829 1643
l-214 -258h-110l143 258h181z" />
    <glyph glyph-name="Ocircumflex" unicode="&#xd4;" horiz-adv-x="1271" 
d="M944 1214q137 -88 217 -238.5t80 -322.5q0 -133 -48 -253.5t-129.5 -208t-193.5 -139.5t-235 -52q-133 0 -255 62q-27 14 -36 19q-14 8 -28 19q-18 10 -32 23q-119 91 -186 231.5t-67 298.5q0 133 48 253.5t128.5 208t192.5 139.5t235 52q162 0 300 -86l3 -2h1l3 -3h1z
M1006 423q73 138 87.5 284.5t-31 266.5t-142.5 185l-9 6l-2 2h-2q-1 1 -3 2l-2 1l-32 18q-64 28 -134 28q-80 0 -165 -37q-191 -83 -306 -297q-73 -135 -87 -281.5t32 -267.5t141 -185l9 -7q17 -11 41 -22q65 -28 135 -28q82 0 164 36q91 38 170.5 115t135.5 181zM628 1514
l-130 -129h-109l148 218h186l137 -218h-110z" />
    <glyph glyph-name="Otilde" unicode="&#xd5;" horiz-adv-x="1271" 
d="M500 1500q-19 0 -36.5 -5.5t-29.5 -13t-24.5 -18.5t-18.5 -19t-13.5 -17.5t-8.5 -10.5l1 141q0 6 20.5 21t52.5 28.5t57 13.5q34 0 66 -9t49 -17.5t43 -24.5q23 -14 36 -20.5t36.5 -13t50.5 -6.5t49 8.5t34.5 18.5t22 23.5t12 19t3.5 9.5v-148q-6 -6 -17.5 -14.5
t-43.5 -22.5t-61 -14q-38 0 -74 9.5t-53 18.5t-45 26q-24 14 -34 19.5t-31 11.5t-43 6zM944 1214q137 -88 217 -238.5t80 -322.5q0 -133 -48 -253.5t-129.5 -208t-193.5 -139.5t-235 -52q-133 0 -255 62q-27 14 -36 19q-14 8 -28 19q-18 10 -32 23q-119 91 -186 231.5
t-67 298.5q0 133 48 253.5t128.5 208t192.5 139.5t235 52q162 0 300 -86l3 -2h1l3 -3h1zM1006 423q73 138 88 284.5t-30.5 266.5t-142.5 185l-10 6l-2 2h-2q-1 1 -3 2l-2 1l-32 18q-64 28 -134 28q-80 0 -165 -37q-191 -83 -306 -297q-73 -135 -87 -281.5t32 -267.5
t141 -185l9 -7q17 -11 41 -22q65 -28 135 -28q82 0 164 36q91 38 170.5 115t135.5 181z" />
    <glyph glyph-name="Odieresis" unicode="&#xd6;" horiz-adv-x="1271" 
d="M944 1214q137 -88 217 -238.5t80 -322.5q0 -133 -48 -253.5t-129.5 -208t-193.5 -139.5t-235 -52q-133 0 -255 62q-27 14 -36 19q-14 8 -28 19q-18 10 -32 23q-119 91 -186 231.5t-67 298.5q0 133 48 253.5t128.5 208t192.5 139.5t235 52q162 0 300 -86l3 -2h1l3 -3h1z
M1006 423q73 138 88 284.5t-30.5 266.5t-142.5 185l-10 6l-2 2h-2q-1 1 -3 2l-2 1l-32 18q-64 28 -134 28q-80 0 -165 -37q-191 -83 -306 -297q-73 -135 -87 -281.5t32 -267.5t141 -185l9 -7q17 -11 41 -22q65 -28 135 -28q82 0 164 36q91 38 170.5 115t135.5 181zM472 1399
q-33 0 -57 24t-24 57t24 57t57 24t57 -24t24 -57t-24 -57t-57 -24zM799 1399q-34 0 -57.5 23.5t-23.5 57.5t23.5 57.5t57.5 23.5t57.5 -23.5t23.5 -57.5t-23.5 -57.5t-57.5 -23.5z" />
    <glyph glyph-name="multiply" unicode="&#xd7;" horiz-adv-x="780" 
d="M744 693l-282 -283l282 -283l-71 -72l-283 283l-284 -283l-71 72l283 283l-283 283l71 72l284 -284l283 284z" />
    <glyph glyph-name="Oslash" unicode="&#xd8;" horiz-adv-x="1345" 
d="M1326 1281l-196 -205q147 -187 147 -423q0 -133 -48 -253.5t-129.5 -208t-193.5 -139.5t-235 -52q-133 0 -255 62q-27 14 -36 19q-14 8 -28 19q-18 10 -32 23q-20 15 -56 49l-179 -187l-67 43l188 211q-139 182 -139 414q0 133 48 253.5t128.5 208t192.5 139.5t235 52
q162 0 300 -86l3 -2h1l3 -3h2v-1q30 -20 57 -42l167 188zM301 882q-78 -145 -88 -304.5t48 -277.5l735 827q-31 27 -39 32l-10 6l-2 2h-2q-1 1 -3 2l-2 1l-32 18q-64 28 -134 28q-80 0 -165 -37q-93 -41 -172 -117.5t-134 -179.5zM1042 423q82 154 90.5 317t-55.5 281
l-767 -801q32 -41 77 -72l9 -7q17 -11 41 -22q65 -28 135 -28q82 0 164 36q91 38 170.5 115t135.5 181z" />
    <glyph glyph-name="Ugrave" unicode="&#xd9;" horiz-adv-x="1132" 
d="M686 1385h-110l-213 258h180zM929 1308h146q-9 -395 -9 -721q0 -113 -30 -210t-79.5 -165t-114 -116.5t-134.5 -72t-140 -24.5h-4q-70 1 -140 24.5t-134.5 72t-114 116.5t-79.5 165t-30 210q0 145 -2 325.5t-4 287.5l-3 108h146v-615q0 -306 85.5 -453t277.5 -151
q191 4 277 154t86 450v615z" />
    <glyph glyph-name="Uacute" unicode="&#xda;" horiz-adv-x="1132" 
d="M769 1643l-213 -258h-110l143 258h180zM929 1308h146q-9 -395 -9 -721q0 -113 -30 -210t-79.5 -165t-114 -116.5t-134.5 -72t-140 -24.5h-4q-70 1 -140 24.5t-134.5 72t-114 116.5t-79.5 165t-30 210q0 145 -2 325.5t-4 287.5l-3 108h146v-615q0 -306 85.5 -453
t277.5 -151q191 4 277 154t86 450v615z" />
    <glyph glyph-name="Ucircumflex" unicode="&#xdb;" horiz-adv-x="1136" 
d="M571 1492l-129 -128h-110l148 218h187l137 -218h-110zM931 1283h146q-9 -395 -9 -721q0 -113 -30 -210t-79.5 -165t-114 -116.5t-134.5 -72t-140 -24.5h-4q-70 1 -140 24.5t-134.5 72t-114 116.5t-79.5 165t-30 210q0 145 -2 325.5t-4 288.5l-3 107h147v-615
q0 -306 85.5 -453t277.5 -151q191 4 276.5 153.5t85.5 450.5v615z" />
    <glyph glyph-name="Udieresis" unicode="&#xdc;" horiz-adv-x="1136" 
d="M931 1283h146q-9 -395 -9 -721q0 -113 -30 -210t-79.5 -165t-114 -116.5t-134.5 -72t-140 -24.5h-4q-70 1 -140 24.5t-134.5 72t-114 116.5t-79.5 165t-30 210q0 145 -2 325.5t-4 288.5l-3 107h147v-615q0 -306 85.5 -453t277.5 -151q191 4 276.5 153.5t85.5 450.5v615z
M405 1364q-34 0 -57.5 23.5t-23.5 57.5t23.5 57.5t57.5 23.5t57.5 -23.5t23.5 -57.5t-23.5 -57.5t-57.5 -23.5zM731 1364q-34 0 -57.5 23.5t-23.5 57.5t23.5 57.5t57.5 23.5t57.5 -23.5t23.5 -57.5t-23.5 -57.5t-57.5 -23.5z" />
    <glyph glyph-name="Yacute" unicode="&#xdd;" horiz-adv-x="1112" 
d="M1029 1283h103l-513 -762v-547h-126v547l-513 762h164l440 -715l2 -3l1 3zM767 1602l-214 -258h-109l142 258h181z" />
    <glyph glyph-name="Thorn" unicode="&#xde;" horiz-adv-x="1011" 
d="M498 1011q96 0 183 -18.5t160.5 -55t117 -98.5t43.5 -142q0 -133 -127.5 -234t-309.5 -101h-347v-388h-136v1305h136v-268h280zM644 429q122 53 177 165t9 218q-31 71 -100.5 111.5t-156.5 42.5h-355v-567l286 1h6q71 2 134 29z" />
    <glyph glyph-name="germandbls" unicode="&#xdf;" horiz-adv-x="1007" 
d="M824 613q83 -66 127 -150.5t29 -174.5q-19 -108 -100 -180q-2 -2 -4 -3q-92 -80 -232 -80q-203 0 -327 131q10 5 28.5 12.5t28.5 12.5q49 16 82 31q82 -78 194 -98q157 -27 217 57q52 73 7 190q-48 126 -182 231q-14 11 -47 39q-60 53 -65 133.5t46 144.5
q45 58 67.5 117.5t18 108.5t-30.5 85t-81.5 50.5t-131.5 1.5q-57 -10 -101.5 -34t-71 -55t-45 -66t-26 -68t-11 -60t-3.5 -43l1 -17v-893h-139l1 893q-1 9 -1.5 24.5t4 60.5t15 86t38.5 91t68 86t109 60.5t157 24.5q139 0 231 -80l2 -2l2 -1q81 -74 100 -180
q24 -138 -92 -266q-25 -28 -24.5 -63.5t26.5 -60.5q32 -28 116 -96z" />
    <glyph glyph-name="agrave" unicode="&#xe0;" horiz-adv-x="1046" 
d="M842 951h128v-948h-128v163q-65 -74 -155 -116t-192 -42t-195 44q-4 2 -8.5 4t-10.5 5t-9 5q-9 5 -20 13q-13 6 -26 17q-90 63 -141.5 161t-51.5 213q0 125 62 231.5t168.5 168.5t231.5 62q124 0 229 -61q1 0 2 -1l2 -1q2 -1 3 -2q58 -35 111 -94v178zM765 314
q82 143 63.5 288.5t-125.5 212.5q-4 3 -12 7l-24 12q-44 19 -97 19q-55 0 -119 -25q-142 -56 -225 -202q-82 -142 -64 -287.5t125 -212.5q1 -1 3.5 -2.5t3.5 -1.5q17 -10 29 -15q99 -42 217 6q139 54 225 201zM663 1079h-110l-214 258h181z" />
    <glyph glyph-name="aacute" unicode="&#xe1;" horiz-adv-x="1046" 
d="M842 945h128v-948h-128v163q-65 -74 -155 -116t-192 -42t-195 44q-4 2 -8.5 4t-10.5 5t-9 5q-16 9 -20 12q-11 5 -25 17q-90 63 -142 162t-52 213q0 125 62 231.5t168.5 168.5t231.5 62q124 0 229 -61q1 0 2 -1q4 -2 5 -3q58 -35 111 -94v178zM765 308q82 143 63.5 288.5
t-125.5 212.5q-4 3 -12 7l-24 12q-44 19 -97 19q-55 0 -119 -25q-142 -56 -225 -202q-82 -142 -64 -287.5t125 -212.5q1 0 3.5 -2t3.5 -3q12 -7 29 -14q99 -42 217 6q139 54 225 201zM687 1337l-214 -258h-110l143 258h181z" />
    <glyph glyph-name="acircumflex" unicode="&#xe2;" horiz-adv-x="1046" 
d="M842 945h128v-948h-128v163q-65 -74 -155 -116t-192 -42t-195 44q-4 2 -8.5 4t-10.5 5t-9 5q-9 5 -20 13q-13 6 -26 17q-90 63 -141.5 161t-51.5 213q0 125 62 231.5t168.5 168.5t231.5 62q124 0 229 -61q1 0 2 -1l2 -1q2 -1 3 -2q58 -35 111 -94v178zM765 308
q82 143 63.5 288.5t-125.5 212.5q-4 3 -12 7l-24 12q-44 19 -97 19q-56 0 -120 -25q-141 -56 -224 -202q-82 -142 -64 -287.5t125 -212.5q1 0 3.5 -2t3.5 -3q12 -7 29 -14q99 -42 217 6q139 54 225 201zM485 1207l-129 -128h-110l148 218h186l138 -218h-110z" />
    <glyph glyph-name="atilde" unicode="&#xe3;" horiz-adv-x="1046" 
d="M341 1194q-22 0 -42 -7t-35 -19.5t-24 -22t-19 -23.5l-10 -13l1 141q0 6 20.5 21t52.5 29t57 14q34 0 66.5 -9t48.5 -17.5t43 -25.5q23 -14 36 -20.5t36.5 -13t50.5 -6.5t49 8.5t34.5 18.5t22 24t12 19.5t3.5 9.5v-148q-6 -6 -17.5 -14.5t-43.5 -22.5t-61 -14
q-38 0 -74 9.5t-53 18.5t-45 26q-23 14 -34 19.5t-32 11.5t-43 6zM842 945h128v-948h-128v163q-65 -74 -155 -116t-192 -42t-195 44q-4 2 -8.5 4t-10.5 5t-9 5q-16 9 -20 12q-11 5 -25 17q-90 63 -142 162t-52 213q0 125 62 231.5t168.5 168.5t231.5 62q124 0 229 -61
q1 0 2 -1l2 -1q2 -1 3 -2q58 -35 111 -94v178zM765 308q82 143 63.5 288.5t-125.5 212.5q-4 3 -12 7l-24 12q-44 19 -97 19q-55 0 -119 -25q-142 -56 -225 -202q-82 -142 -64 -287.5t125 -212.5q1 0 3.5 -2t3.5 -3q12 -7 29 -14q99 -42 217 6q139 54 225 201z" />
    <glyph glyph-name="adieresis" unicode="&#xe4;" horiz-adv-x="1046" 
d="M842 945h128v-948h-128v163q-65 -74 -155 -116t-192 -42t-195 44q-4 2 -8.5 4t-10.5 5t-9 5q-16 9 -20 12q-11 5 -25 17q-90 63 -142 162t-52 213q0 125 62 231.5t168.5 168.5t231.5 62q124 0 229 -61q1 0 2 -1l2 -1q2 -1 3 -2q58 -35 111 -94v178zM765 308
q82 143 63.5 288.5t-125.5 212.5q-4 3 -12 7l-24 12q-44 19 -97 19q-55 0 -119 -25q-142 -56 -225 -202q-82 -142 -64 -287.5t125 -212.5q1 0 3.5 -2t3.5 -3q12 -7 29 -14q99 -42 217 6q139 54 225 201zM334 1127q-34 0 -57.5 23.5t-23.5 57.5t23.5 57.5t57.5 23.5
t57.5 -23.5t23.5 -57.5t-23.5 -57.5t-57.5 -23.5zM661 1127q-33 0 -57 24t-24 57t24 57t57 24t57 -24t24 -57t-24 -57t-57 -24z" />
    <glyph glyph-name="aring" unicode="&#xe5;" horiz-adv-x="1046" 
d="M842 945h128v-948h-128v163q-65 -74 -155 -116t-192 -42t-195 44q-4 2 -8.5 4t-10.5 5t-9 5q-16 9 -20 12q-13 6 -26 17q-90 63 -141.5 161.5t-51.5 213.5q0 125 62 231.5t168.5 168.5t231.5 62q124 0 229 -61q1 0 2 -1l2 -1q2 -1 3 -2q58 -35 111 -94v178zM765 308
q82 143 63.5 288.5t-125.5 212.5q-4 3 -12 7l-24 12q-44 19 -97 19q-56 0 -120 -25q-141 -56 -224 -202q-82 -142 -64 -287.5t125 -212.5q1 0 3.5 -2t3.5 -3q12 -7 29 -14q99 -42 217 6q139 54 225 201zM518 1039q-63 0 -109.5 46t-46.5 109t46.5 109.5t109.5 46.5
t109.5 -46.5t46.5 -109.5t-46.5 -109t-109.5 -46zM518 1272q-32 0 -55 -23t-23 -55q0 -31 23.5 -54t54.5 -23q32 0 55 23t23 54q0 32 -23 55t-55 23z" />
    <glyph glyph-name="ae" unicode="&#xe6;" horiz-adv-x="1818" 
d="M1600 308q19 35 31 68h153q-31 -161 -159 -267.5t-296 -106.5q-103 0 -194 43q-9 4 -29 14q-1 1 -8.5 5.5t-11.5 7.5q-5 3 -14 9.5t-11 7.5q-51 36 -91 87v-179h-128v163q-65 -74 -155 -116t-192 -42t-195 44q-4 2 -8.5 4t-10.5 5t-9 5q-16 9 -20 12q-13 6 -26 17
q-90 63 -141.5 161.5t-51.5 213.5q0 125 62 231.5t168.5 168.5t231.5 62q124 0 229 -61q1 0 2 -1l2 -1q2 -1 3 -2q58 -35 111 -94v178h128v-191q65 80 158.5 126t200.5 46q124 0 229 -61q2 0 3 -1q2 -1 5 -4q88 -52 146.5 -138.5t74.5 -190.5h-767q-44 -124 -16 -240
t118 -172q1 -1 4 -2l3 -1q13 -9 29 -16q102 -41 216 6q68 27 126.5 79.5t99.5 122.5zM1060 619q-13 -21 -19 -37h622q-13 157 -125 227q-6 3 -7 4l-6 3l-23 12q-42 18 -98 18q-58 0 -119 -24q-143 -58 -225 -203zM765 308q82 143 63.5 288.5t-125.5 212.5q-4 3 -12 7l-24 12
q-44 19 -97 19q-56 0 -120 -25q-141 -56 -224 -202q-82 -142 -64 -287.5t125 -212.5q1 0 3.5 -2t3.5 -3q12 -7 29 -14q99 -42 217 6q139 54 225 201z" />
    <glyph glyph-name="ccedilla" unicode="&#xe7;" horiz-adv-x="980" 
d="M697 826l-6 3q4 -2 12 -8l-3 3t-3 2zM765 321q16 27 32 68h152q-18 -91 -69.5 -167.5t-128.5 -127.5q12 -26 13.5 -52.5t-6.5 -50.5t-24 -46t-42 -39.5t-58 -30.5t-73 -19t-86.5 -5.5t-99.5 10t-111 27.5q165 -97 239 -241q-29 -7 -68 -12q-13 -2 -45 -7t-49 -7
q-25 83 -73.5 155t-114.5 119q-1 1 -3 2.5t-3 2.5q86 25 122 48q5 4 15 11t15 11q340 -90 402 55q8 20 3 41q-100 -51 -209 -51q-104 0 -195 43q-6 2 -15 7.5t-13 7.5q-16 9 -20 12q-13 6 -26 17q-90 63 -141.5 161.5t-51.5 213.5q0 125 62 231.5t168.5 168.5t231.5 62
q124 0 229 -61q1 0 2 -1q0 -1 2 -2.5t3 -1.5q88 -52 146.5 -138.5t74.5 -190.5h-121q3 89 -30 162.5t-98 114.5l-3 3t-3 2l-6 3l-24 12q-42 18 -97 18q-58 0 -120 -24q-140 -55 -224 -203q-82 -142 -64 -287.5t125 -212.5q1 -1 3.5 -2.5t3.5 -1.5q17 -10 29 -15
q99 -42 217 6q138 54 225 202z" />
    <glyph glyph-name="egrave" unicode="&#xe8;" horiz-adv-x="983" 
d="M765 309q19 35 32 68h152q-31 -161 -159 -267.5t-296 -106.5q-103 0 -194 43q-9 4 -29 14q-17 11 -19 13q-3 2 -26 17q-89 63 -141 162t-52 213q0 126 62 232.5t168 168t231 61.5t230 -61q1 0 2 -1q4 -2 6 -4q88 -52 146 -138.5t74 -190.5h-767q-44 -124 -16 -240
t118 -172q1 -1 7 -4q9 -6 29 -15q103 -41 217 6q139 56 225 202zM226 620q-16 -28 -20 -37h623q-13 157 -125 227q-6 3 -7 4q-1 0 -3.5 1t-3.5 2l-23 11q-44 19 -97 19q-58 0 -120 -24q-141 -57 -224 -203zM585 1079h-110l-214 258h181z" />
    <glyph glyph-name="eacute" unicode="&#xe9;" horiz-adv-x="983" 
d="M765 309q19 35 32 68h152q-31 -161 -159 -267.5t-296 -106.5q-103 0 -194 43q-9 4 -29 14q-17 11 -19 13q-3 2 -26 17q-89 63 -141 162t-52 213q0 126 62 232.5t168 168t231 61.5t230 -61q1 0 2 -1q4 -2 6 -4q88 -52 146 -138.5t74 -190.5h-767q-44 -124 -16 -240
t118 -172q1 -1 7 -4q9 -6 29 -15q103 -41 217 6q139 56 225 202zM226 620q-16 -28 -20 -37h623q-13 157 -125 227q-6 3 -7 4q-1 0 -3.5 1t-3.5 2l-23 11q-44 19 -97 19q-58 0 -120 -24q-141 -57 -224 -203zM714 1337l-214 -258h-110l143 258h181z" />
    <glyph glyph-name="ecircumflex" unicode="&#xea;" horiz-adv-x="983" 
d="M765 309q19 35 32 68h152q-31 -161 -159 -267.5t-296 -106.5q-103 0 -194 43q-9 4 -29 14q-17 11 -19 13q-3 2 -26 17q-89 63 -141 162t-52 213q0 126 62 232.5t168 168t231 61.5t230 -61q1 0 2 -1q4 -2 6 -4q88 -52 146 -138.5t74 -190.5h-767q-44 -124 -16 -240
t118 -172q1 -1 7 -4q9 -6 29 -15q103 -41 217 6q139 56 225 202zM226 620q-16 -28 -20 -37h623q-13 157 -125 227q-6 3 -7 4q-1 0 -3.5 1t-3.5 2l-23 11q-44 19 -97 19q-58 0 -120 -24q-141 -57 -224 -203zM496 1207l-129 -128h-110l148 218h186l137 -218h-109z" />
    <glyph glyph-name="edieresis" unicode="&#xeb;" horiz-adv-x="983" 
d="M765 309q19 35 32 68h152q-31 -161 -159 -267.5t-296 -106.5q-103 0 -194 43q-9 4 -29 14q-17 11 -19 13q-3 2 -26 17q-89 63 -141 162t-52 213q0 126 62 232.5t168 168t231 61.5t230 -61q1 0 2 -1q4 -2 6 -4q88 -52 146 -138.5t74 -190.5h-767q-44 -124 -16 -240
t118 -172q1 -1 7 -4q9 -6 29 -15q103 -41 217 6q139 56 225 202zM226 620q-16 -28 -20 -37h623q-13 157 -125 227q-6 3 -7 4q-1 0 -3.5 1t-3.5 2l-23 11q-44 19 -97 19q-58 0 -120 -24q-141 -57 -224 -203zM329 1152q-33 0 -57 24t-24 57t24 57t57 24t57 -24t24 -57t-24 -57
t-57 -24zM656 1152q-34 0 -57.5 23.5t-23.5 57.5t23.5 57.5t57.5 23.5t57.5 -23.5t23.5 -57.5t-23.5 -57.5t-57.5 -23.5z" />
    <glyph glyph-name="igrave" unicode="&#xec;" horiz-adv-x="278" 
d="M270 1079h-110l-213 258h181zM202 -1h-127v948h127v-948z" />
    <glyph glyph-name="iacute" unicode="&#xed;" horiz-adv-x="280" 
d="M400 1337l-214 -258h-109l142 258h181zM203 -1h-127v948h127v-948z" />
    <glyph glyph-name="icircumflex" unicode="&#xee;" horiz-adv-x="280" 
d="M238 1297l137 -218h-110l-122 128l-130 -128h-109l148 218h186zM203 -1h-127v948h127v-948z" />
    <glyph glyph-name="idieresis" unicode="&#xef;" horiz-adv-x="280" 
d="M-23 1152q-34 0 -57.5 23.5t-23.5 57.5t23.5 57.5t57.5 23.5t57.5 -23.5t23.5 -57.5t-23.5 -57.5t-57.5 -23.5zM303 1152q-34 0 -57.5 23.5t-23.5 57.5t23.5 57.5t57.5 23.5t57.5 -23.5t23.5 -57.5t-23.5 -57.5t-57.5 -23.5zM204 -1h-128v948h128v-948z" />
    <glyph glyph-name="eth" unicode="&#xf0;" horiz-adv-x="1019" 
d="M977 474v-3q0 -31 -7 -75v-4q-29 -168 -160.5 -280t-304.5 -112q-107 0 -198 44l-30 15q-9 5 -20 13q-18 10 -26 17q-92 64 -145 164.5t-53 217.5q0 128 63.5 236.5t172.5 172t236 63.5q125 0 234 -63q1 0 2 -1t3 -2l2 -1l2 -1q2 -1 2 -2q-64 126 -192 265l-277 -106
l-47 52l254 125q-82 79 -157 136h140q48 -31 113 -88l178 88l86 -96l-182 -70q62 -63 114 -132.5t101 -159t75 -196.5t21 -217zM780 312q84 146 66 294.5t-128 216.5q-5 4 -13 7l-24 12q-45 19 -99 19q-60 0 -122 -25q-146 -58 -230 -206q-55 -95 -66 -196.5t23 -185
t106 -128.5q1 0 3.5 -2t3.5 -3q9 -6 30 -15q103 -42 221 6q141 55 229 206z" />
    <glyph glyph-name="ntilde" unicode="&#xf1;" horiz-adv-x="987" 
d="M318 1170q-19 0 -36.5 -5.5t-29.5 -13t-24.5 -18.5t-18.5 -19t-13.5 -17.5t-8.5 -10.5l1 141q0 6 21 21t53 28.5t57 13.5q34 0 66 -9t49 -17.5t43 -24.5q24 -14 36 -20.5t35.5 -13t50.5 -6.5t49 8t34.5 18.5t22.5 24t12.5 19t3.5 9.5l-1 -148q-6 -6 -17 -14.5t-43 -22.5
t-61 -14q-38 0 -74 9.5t-53.5 18.5t-45.5 26q-24 14 -34 19.5t-31 11.5t-43 6zM934 -1h-121v437q0 115 -35 211.5t-106.5 157t-166.5 60.5q-145 0 -224.5 -121t-79.5 -323v-422h-125v948h127v-160q5 6 14 15.5t39 33.5t63.5 43t85.5 34t105 15q71 0 145.5 -33t134.5 -88
t98.5 -133.5t38.5 -162.5z" />
    <glyph glyph-name="ograve" unicode="&#xf2;" horiz-adv-x="1009" 
d="M746 877q105 -62 167.5 -169.5t62.5 -234.5q0 -128 -63.5 -236.5t-172 -171.5t-236.5 -63q-107 0 -198 44l-30 15q-16 9 -20 12q-15 8 -26 18q-91 64 -144 164.5t-53 217.5q0 195 138.5 333.5t332.5 138.5q125 0 234 -63q1 0 2 -1q0 -1 2.5 -2.5t3.5 -1.5zM779 314
q84 146 66 294.5t-128 216.5q-5 4 -13 7l-24 12q-45 19 -99 19q-60 0 -122 -25q-145 -58 -229 -206q-84 -145 -66 -293.5t128 -216.5q1 0 3.5 -2t3.5 -3q9 -6 30 -15q103 -42 221 6q141 55 229 206zM610 1079h-110l-213 258h180z" />
    <glyph glyph-name="oacute" unicode="&#xf3;" horiz-adv-x="1009" 
d="M746 877q105 -62 167.5 -169.5t62.5 -234.5q0 -128 -63.5 -236.5t-172 -171.5t-236.5 -63q-107 0 -198 44l-30 15q-16 9 -20 12q-15 8 -26 18q-91 64 -144 164.5t-53 217.5q0 195 138.5 333.5t332.5 138.5q125 0 234 -63q1 0 2 -1q0 -1 2.5 -2.5t3.5 -1.5zM780 314
q84 146 65.5 294.5t-128.5 216.5q-5 4 -13 7l-24 12q-45 19 -99 19q-60 0 -122 -25q-145 -58 -229 -206q-84 -145 -66 -293.5t128 -216.5q1 0 3.5 -2t3.5 -3q9 -6 30 -15q103 -42 221 6q142 56 230 206zM739 1337l-214 -258h-110l143 258h181z" />
    <glyph glyph-name="ocircumflex" unicode="&#xf4;" horiz-adv-x="1009" 
d="M746 877q105 -62 167.5 -169.5t62.5 -234.5q0 -128 -63.5 -236.5t-172 -171.5t-236.5 -63q-107 0 -198 44l-30 15q-16 9 -20 12q-15 8 -26 18q-91 64 -144 164.5t-53 217.5q0 195 138.5 333.5t332.5 138.5q125 0 234 -63q1 0 2 -1q0 -1 2.5 -2.5t3.5 -1.5zM780 314
q84 146 65.5 294.5t-128.5 216.5q-5 4 -13 7l-24 12q-45 19 -99 19q-60 0 -122 -25q-145 -58 -229 -206q-84 -145 -66 -293.5t128 -216.5q1 0 3.5 -2t3.5 -3q9 -6 30 -15q103 -42 221 6q142 56 230 206zM481 1207l-129 -128h-110l148 218h186l138 -218h-110z" />
    <glyph glyph-name="otilde" unicode="&#xf5;" horiz-adv-x="1009" 
d="M369 1170q-19 0 -36.5 -5.5t-29.5 -13t-24.5 -18.5t-18.5 -19t-13.5 -17.5t-8.5 -10.5l1 141q0 6 20.5 21t52.5 28.5t57 13.5q34 0 66 -9t49 -17.5t43 -24.5q23 -14 36 -20.5t36.5 -13t50.5 -6.5t49 8t34.5 18.5t22.5 24t12.5 19t3.5 9.5l-1 -148q-6 -6 -17.5 -14.5
t-43.5 -22.5t-61 -14q-38 0 -74 9.5t-53 18.5t-45 26q-24 14 -34 19.5t-31 11.5t-43 6zM746 877q105 -62 167.5 -169.5t62.5 -234.5q0 -128 -63.5 -236.5t-172 -171.5t-236.5 -63q-107 0 -198 44l-30 15q-16 9 -20 12q-15 8 -26 18q-91 64 -144 164.5t-53 217.5
q0 195 138.5 333.5t332.5 138.5q125 0 234 -63q1 0 2 -1q0 -1 2.5 -2.5t3.5 -1.5zM780 314q84 146 65.5 294.5t-128.5 216.5q-5 4 -13 7l-24 12q-45 19 -99 19q-60 0 -122 -25q-145 -58 -229 -206q-84 -145 -66 -293.5t128 -216.5q1 0 3.5 -2t3.5 -3q9 -6 30 -15
q103 -42 221 6q142 56 230 206z" />
    <glyph glyph-name="odieresis" unicode="&#xf6;" horiz-adv-x="1009" 
d="M746 877q105 -62 167.5 -169.5t62.5 -234.5q0 -128 -63.5 -236.5t-172 -171.5t-236.5 -63q-107 0 -198 44l-30 15q-16 9 -20 12q-15 8 -26 18q-91 64 -144 164.5t-53 217.5q0 195 138.5 333.5t332.5 138.5q125 0 234 -63q1 0 2 -1q0 -1 2.5 -2.5t3.5 -1.5zM779 314
q84 146 66 294.5t-128 216.5q-5 4 -13 7l-24 12q-45 19 -99 19q-60 0 -122 -25q-145 -58 -229 -206q-84 -145 -66 -293.5t128 -216.5q1 0 3.5 -2t3.5 -3q9 -6 30 -15q103 -42 221 6q141 55 229 206zM341 1152q-34 0 -57.5 23.5t-23.5 57.5t23.5 57.5t57.5 23.5t57.5 -23.5
t23.5 -57.5t-23.5 -57.5t-57.5 -23.5zM668 1152q-34 0 -57.5 23.5t-23.5 57.5t23.5 57.5t57.5 23.5t57.5 -23.5t23.5 -57.5t-23.5 -57.5t-57.5 -23.5z" />
    <glyph glyph-name="divide" unicode="&#xf7;" horiz-adv-x="815" 
d="M804 380h-794v95h794v-95zM407 607q-34 0 -57.5 23.5t-23.5 57.5t23.5 57.5t57.5 23.5t57.5 -23.5t23.5 -57.5t-23.5 -57.5t-57.5 -23.5zM407 90q-34 0 -57.5 23.5t-23.5 57.5t23.5 57.5t57.5 23.5t57.5 -23.5t23.5 -57.5t-23.5 -57.5t-57.5 -23.5z" />
    <glyph glyph-name="oslash" unicode="&#xf8;" horiz-adv-x="1028" 
d="M1001 951l-141 -166q121 -136 121 -312q0 -128 -63.5 -236.5t-172.5 -171.5t-237 -63q-107 0 -198 44q-5 2 -29 14q-14 8 -21 13q-1 1 -4 3l-129 -151l-66 42l125 163q-70 65 -109.5 154t-39.5 189q0 195 138.5 333t332.5 138q127 0 234 -62q1 0 2 -1q0 -1 3 -3l3 -1
q1 -1 3.5 -2.5t3.5 -2.5l122 158zM234 632q-68 -116 -68 -240.5t63 -205.5l492 639q-5 4 -13 7l-24 12q-45 19 -99 19q-60 0 -122 -25q-145 -58 -229 -206zM784 314q60 105 66.5 218.5t-39.5 194.5l-516 -605h1q1 0 3.5 -2t3.5 -3q9 -6 30 -15q103 -42 221 6q142 56 230 206
z" />
    <glyph glyph-name="ugrave" unicode="&#xf9;" horiz-adv-x="989" 
d="M627 1079h-109l-214 258h181zM786 947h125v-948h-127v160q-5 -6 -13.5 -15.5t-39 -33.5t-63.5 -43t-85 -34t-105 -15q-58 0 -116.5 16.5t-113 51t-96.5 82.5t-67 117.5t-25 149.5l-7 512h122v-437q0 -88 17.5 -163t53 -135.5t96 -95t140.5 -34.5q145 0 224.5 121
t79.5 323v421z" />
    <glyph glyph-name="uacute" unicode="&#xfa;" horiz-adv-x="989" 
d="M709 1337l-214 -258h-110l143 258h181zM786 947h125v-948h-127v160q-5 -6 -13.5 -15.5t-39 -33.5t-63.5 -43t-85 -34t-105 -15q-58 0 -116.5 16.5t-113 51t-96.5 82.5t-67 117.5t-25 149.5l-7 512h122v-437q0 -88 17.5 -163t53 -135.5t96 -95t140.5 -34.5
q145 0 224.5 121t79.5 323v421z" />
    <glyph glyph-name="ucircumflex" unicode="&#xfb;" horiz-adv-x="980" 
d="M481 1248l-129 -128h-110l149 218h186l137 -218h-110zM782 984h125v-947h-127v160q-5 -6 -13.5 -15.5t-39 -33.5t-63.5 -43t-85 -34t-105 -15q-58 0 -116.5 16.5t-113 51t-96.5 82.5t-67 117.5t-25 149.5l-7 511h121v-436q0 -70 10.5 -131.5t34.5 -117t59 -95t87.5 -62.5
t116.5 -23q145 0 224.5 121t79.5 323v421z" />
    <glyph glyph-name="udieresis" unicode="&#xfc;" horiz-adv-x="980" 
d="M782 984h125v-947h-127v160q-5 -6 -13.5 -15.5t-39 -33.5t-63.5 -43t-85 -34t-105 -15q-58 0 -116.5 16.5t-113 51t-96.5 82.5t-67 117.5t-25 149.5l-7 511h121v-436q0 -70 10.5 -131.5t34.5 -117t59 -95t87.5 -62.5t116.5 -23q145 0 224.5 121t79.5 323v421zM354 1169
q-34 0 -57.5 23.5t-23.5 57.5t23.5 57.5t57.5 23.5t57.5 -23.5t23.5 -57.5t-23.5 -57.5t-57.5 -23.5zM681 1169q-34 0 -57.5 23.5t-23.5 57.5t23.5 57.5t57.5 23.5t57.5 -23.5t23.5 -57.5t-23.5 -57.5t-57.5 -23.5z" />
    <glyph glyph-name="yacute" unicode="&#xfd;" horiz-adv-x="849" 
d="M770 984h93l-527 -1384h-77l145 387l-420 997h153l328 -831zM688 1371l-214 -259h-110l143 259h181z" />
    <glyph glyph-name="thorn" unicode="&#xfe;" horiz-adv-x="1060" 
d="M797 1013q106 -62 168.5 -170t62.5 -235q0 -128 -63.5 -236.5t-172 -171.5t-236.5 -63q-108 0 -199 44l-30 15q-15 8 -20 13q-11 5 -25 17q-44 30 -78 69v-593h-128v1629h128v-408q66 74 157.5 116t194.5 42q125 0 234 -63h2zM831 449q84 146 66 295t-128 217q-4 2 -7 5
q-4 2 -7 3l-23 11q-45 19 -99 19q-62 0 -122 -25q-146 -58 -230 -206q-56 -95 -67 -197t23 -185.5t106 -128.5q1 -1 3.5 -3t3.5 -2q12 -7 31 -14q103 -43 220 5q142 56 230 206z" />
    <glyph glyph-name="ydieresis" unicode="&#xff;" horiz-adv-x="849" 
d="M770 984h93l-527 -1384h-77l145 387l-420 997h153l328 -831zM266 1169q-33 0 -57 24t-24 57t24 57t57 24t57 -24t24 -57t-24 -57t-57 -24zM593 1169q-34 0 -57.5 23.5t-23.5 57.5t23.5 57.5t57.5 23.5t57.5 -23.5t23.5 -57.5t-23.5 -57.5t-57.5 -23.5z" />
    <glyph glyph-name="dotlessi" unicode="&#x131;" horiz-adv-x="272" 
d="M199 36h-127v948h127v-948z" />
    <glyph glyph-name="Lslash" unicode="&#x141;" horiz-adv-x="1036" 
d="M325 24h732v-54h-858v524l-144 -113l-59 38l203 180v680h126v-567l355 317l109 -70l-464 -365v-570z" />
    <glyph glyph-name="lslash" unicode="&#x142;" horiz-adv-x="559" 
d="M559 820l-220 -150v-634h-127v547l-154 -105l-58 39l212 176v652h127v-546l114 94z" />
    <glyph glyph-name="OE" unicode="&#x152;" horiz-adv-x="1826" 
d="M1819 1306v-49h-810v-579h732v-54h-732v-574h810v-49h-937v245q-67 -115 -163.5 -180.5t-207.5 -65.5q-105 0 -200 62q-1 1 -12 7.5t-17 11.5q-7 5 -21 19q-14 10 -25 23q-94 91 -146.5 231.5t-52.5 298.5q0 177 63.5 327.5t172.5 238t238 87.5q127 0 236 -86l2 -2h1
l1 -1q1 -1 1 -2h1l1 -1q74 -60 128 -155v247h937zM802 423q58 138 69 284.5t-24.5 266.5t-111.5 185l-7 6l-2 2h-1q-1 1 -3 2l-1 1l-25 18q-50 28 -106 28q-63 0 -129 -37q-150 -84 -240 -297q-57 -135 -68.5 -281.5t24.5 -267.5t111 -185l8 -7q17 -14 32 -22
q51 -28 105 -28q65 0 129 36q72 38 134 114.5t106 181.5z" />
    <glyph glyph-name="oe" unicode="&#x153;" horiz-adv-x="1796" 
d="M1578 309q19 35 32 68h152q-31 -161 -159 -267.5t-296 -106.5q-103 0 -194 43q-9 4 -29 14q-17 11 -19 13q-3 2 -26 17q-77 54 -129 142q-63 -105 -171 -167.5t-235 -62.5q-107 0 -198 44l-30 15q-16 9 -20 12q-15 8 -26 18q-91 64 -144 164.5t-53 217.5
q0 195 138.5 333.5t332.5 138.5q125 0 234 -63q1 0 2 -1q0 -1 3 -2l3 -1q106 -62 168 -172q62 101 166.5 161t226.5 60q125 0 230 -61q1 0 2 -1q2 -1 5 -4q88 -52 146.5 -138.5t74.5 -190.5h-767q-44 -124 -16 -240t118 -172q1 -1 7 -4q9 -6 29 -15q102 -41 216 6
q68 27 126.5 79.5t99.5 122.5zM1038 620q-13 -21 -19 -37h622q-13 157 -125 227q-6 3 -7 4l-6 3l-23 11q-44 19 -97 19q-59 0 -120 -24q-143 -58 -225 -203zM779 314q84 146 66 294.5t-128 216.5q-5 4 -13 7l-24 12q-45 19 -99 19q-60 0 -122 -25q-145 -58 -229 -206
q-84 -145 -66 -293.5t128 -216.5q1 0 3.5 -2t3.5 -3q9 -6 30 -15q103 -42 221 6q141 55 229 206z" />
    <glyph glyph-name="Scaron" unicode="&#x160;" horiz-adv-x="1034" 
d="M600 1364h-186l-137 218h109l123 -129l129 129h110zM553 680q52 -20 79.5 -31t75.5 -31t74.5 -35.5t63.5 -38.5t58 -45.5t42 -50.5t30.5 -60.5t10.5 -68.5q0 -17 -1.5 -37t-10 -55t-24 -66t-46 -66.5t-72 -61t-107 -43.5t-146.5 -20h-23q-114 0 -209 31t-158.5 83.5
t-104 114.5t-60.5 132h156q116 -307 390 -307h13q138 5 206 57.5t66 155.5q-2 104 -78 176t-273 156q-3 1 -8.5 3.5t-8.5 3.5q-1 0 -11 4.5t-15 5.5q-77 30 -128 53t-106.5 56t-87.5 66t-54 77.5t-23 97.5q-1 26 3 57.5t26.5 86t61.5 94.5q102 104 300 104q90 0 167 -17
t130 -43.5t96 -64t68.5 -72.5t45 -74.5t27 -65.5t12.5 -50h-144q-11 38 -26 74t-48.5 84t-76 83t-111.5 59.5t-152 24.5q-107 0 -182.5 -57.5t-75.5 -139.5q0 -97 69.5 -169t230.5 -143l1 -1l3 -1q11 -5 33 -13t32 -12z" />
    <glyph glyph-name="scaron" unicode="&#x161;" horiz-adv-x="849" 
d="M509 1127h-186l-137 218h109l123 -129l129 129h110zM406 573q16 -6 59.5 -21t63 -22.5t57.5 -22.5t57.5 -25.5t49 -27.5t45 -33.5t32 -37t23.5 -44t8 -50.5q1 -28 -5.5 -58t-28 -66.5t-55.5 -64.5t-95.5 -48t-141.5 -22q-84 -2 -155 15t-118.5 44.5t-84.5 65.5t-57 75
t-31 76h141q93 -226 307 -220q108 3 157 39.5t47 104.5q-1 72 -59.5 122t-208.5 108l-33 12q-49 18 -78 29.5t-71.5 30.5t-67.5 37.5t-50.5 43t-37.5 54t-13 63.5q-1 28 5.5 58t27 66t54 64t92.5 47t136 19q87 0 159 -19t119.5 -49t82 -70t52 -78.5t24.5 -78.5h-131
q-4 13 -7 22t-15 35.5t-26 46.5t-39.5 46t-56 42.5t-75.5 28.5t-97 12q-80 0 -136 -39.5t-56 -92.5q0 -67 53 -116.5t176 -99.5q1 0 2 -1z" />
    <glyph glyph-name="Ydieresis" unicode="&#x178;" horiz-adv-x="1112" 
d="M1029 1283h103l-513 -762v-547h-126v547l-513 762h164l440 -715l2 -3l1 3zM392 1364q-34 0 -57.5 23.5t-23.5 57.5t23.5 57.5t57.5 23.5t57.5 -23.5t23.5 -57.5t-23.5 -57.5t-57.5 -23.5zM719 1364q-33 0 -57 24t-24 57t24 57t57 24t57 -24t24 -57t-24 -57t-57 -24z" />
    <glyph glyph-name="Zcaron" unicode="&#x17d;" horiz-adv-x="1009" 
d="M999 1278v-135l-821 -1071h821v-102h-993v100l915 1102h-915v106h993zM591 1364h-187l-137 218h110l123 -129l129 129h110z" />
    <glyph glyph-name="zcaron" unicode="&#x17e;" horiz-adv-x="860" 
d="M841 981v-98l-651 -732h651v-118h-829v72l764 776h-764v100h829zM492 1127h-186l-137 218h109l123 -129l129 129h110z" />
    <glyph glyph-name="circumflex" unicode="&#x2c6;" horiz-adv-x="512" 
d="M490 1133h-110l-123 128l-129 -128h-110l149 217h186z" />
    <glyph glyph-name="caron" unicode="&#x2c7;" horiz-adv-x="456" 
d="M356 1350h109l-148 -217h-186l-137 217h110l122 -128z" />
    <glyph glyph-name="ilde" unicode="&#x2dc;" horiz-adv-x="593" 
d="M443 1256q27 0 49 8.5t34.5 18.5t22 23.5t12 19t3.5 9.5l-1 -148q-6 -6 -17 -14.5t-43 -22.5t-61 -14q-38 0 -74 9.5t-53 18.5t-45 26q-23 14 -34 19.5t-32 11.5t-43 6t-41.5 -7t-35 -19.5t-24.5 -21.5t-19 -23l-10 -13v141q0 6 21 21t53 28.5t57 13.5q34 0 66 -9
t49 -17.5t43 -24.5q23 -14 36 -20.5t36.5 -13t50.5 -6.5z" />
    <glyph glyph-name="endash" unicode="&#x2013;" horiz-adv-x="1073" 
d="M1049 400h-1026v95h1026v-95z" />
    <glyph glyph-name="emdash" unicode="&#x2014;" horiz-adv-x="1873" 
d="M1850 400h-1827v95h1827v-95z" />
    <glyph glyph-name="quoteleft" unicode="&#x2018;" horiz-adv-x="243" 
d="M127 1007q33 0 56 -22.5t23 -55.5q0 -32 -23.5 -54.5t-55.5 -22.5q-42 0 -66 35t-24 84q0 154 160 221v-29q-111 -41 -111 -169q16 13 41 13z" />
    <glyph glyph-name="quoteright" unicode="&#x2019;" horiz-adv-x="243" 
d="M116 1192q42 0 66 -35t24 -84q0 -155 -160 -221v29q110 40 110 169q-17 -14 -40 -14q-33 0 -56 23t-23 56q0 32 23.5 54.5t55.5 22.5z" />
    <glyph glyph-name="quotesinglbase" unicode="&#x201a;" horiz-adv-x="229" 
d="M107 202q42 0 66 -35t24 -84q0 -155 -159 -221v30q110 40 110 168q-16 -13 -41 -13q-33 0 -55.5 22.5t-22.5 56.5q0 32 23 54t55 22z" />
    <glyph glyph-name="quoteleftreversed" unicode="&#x201b;" horiz-adv-x="241" 
d="M86 1193q0 -129 111 -169v-29q-160 67 -160 220q0 49 24 84t66 35q33 0 56 -22t23 -54q0 -33 -23 -56t-56 -23q-24 0 -41 14z" />
    <glyph glyph-name="quotedblleft" unicode="&#x201c;" horiz-adv-x="514" 
d="M127 1007q33 0 56 -22.5t23 -55.5q0 -32 -23.5 -54.5t-55.5 -22.5q-42 0 -66 35t-24 84q0 154 160 221v-29q-111 -41 -111 -169q16 13 41 13zM397 1007q33 0 55.5 -22.5t22.5 -55.5q0 -32 -23 -54.5t-55 -22.5q-42 0 -66 35t-24 84q0 155 160 221v-29q-111 -41 -111 -169
q16 13 41 13z" />
    <glyph glyph-name="quotedblright" unicode="&#x201d;" horiz-adv-x="514" 
d="M385 1192q42 0 66 -35t24 -84q0 -155 -159 -221v29q110 40 110 169q-17 -14 -41 -14q-33 0 -55.5 23t-22.5 56q0 32 23 54.5t55 22.5zM116 1192q42 0 66 -35t24 -84q0 -155 -160 -221v29q110 40 110 169q-17 -14 -40 -14q-33 0 -56 23t-23 56q0 32 23.5 54.5t55.5 22.5z
" />
    <glyph glyph-name="quotedblbase" unicode="&#x201e;" horiz-adv-x="489" 
d="M107 202q42 0 66 -35t24 -84q0 -155 -159 -221v30q110 40 110 168q-16 -13 -41 -13q-33 0 -55.5 22.5t-22.5 56.5q0 32 23 54t55 22zM368 202q42 0 66 -35t24 -84q0 -155 -160 -221v30q110 40 110 168q-16 -13 -40 -13q-33 0 -56 23t-23 56q0 32 23 54t56 22z" />
    <glyph glyph-name="dagger" unicode="&#x2020;" horiz-adv-x="1198" 
d="M663 922h451v-54h-451v-1142h-128v1142h-451v54h451v396h128v-396z" />
    <glyph glyph-name="daggerdbl" unicode="&#x2021;" horiz-adv-x="1083" 
d="M1057 869h-451v-719h451v-55h-451v-369h-127v369h-452v55h452v719h-452v54h452v395h127v-395h451v-54z" />
    <glyph glyph-name="bullet" unicode="&#x2022;" horiz-adv-x="454" 
d="M227 801q78 0 133 -55t55 -133t-55 -133t-133 -55t-133 55t-55 133t55 133t133 55z" />
    <glyph glyph-name="ellipsis" unicode="&#x2026;" horiz-adv-x="1394" 
d="M108 40q-34 0 -57.5 23.5t-23.5 57.5t23.5 57.5t57.5 23.5t57.5 -23.5t23.5 -57.5t-23.5 -57.5t-57.5 -23.5zM702 40q-34 0 -57.5 23.5t-23.5 57.5t23.5 57.5t57.5 23.5t57.5 -23.5t23.5 -57.5t-23.5 -57.5t-57.5 -23.5zM1286 40q-34 0 -57.5 23.5t-23.5 57.5t23.5 57.5
t57.5 23.5t57.5 -23.5t23.5 -57.5t-23.5 -57.5t-57.5 -23.5z" />
    <glyph glyph-name="perthousand" unicode="&#x2030;" horiz-adv-x="1945" 
d="M986 1307h132l-777 -1349l-70 1zM576 951q0 -147 -79 -251t-191 -104q-62 0 -113 33q-2 1 -17 11q-8 6 -12 10q-2 2 -14 13q-53 49 -83 124.5t-30 163.5q0 147 79 251.5t190 104.5q73 0 134 -47q1 0 1 -1l1 -1q2 0 2 -1q60 -46 96 -128t36 -178zM206 672q58 -33 126 4
q80 41 131 155q48 110 37.5 222.5t-72.5 163.5q-1 1 -4 2.5t-4 2.5l-13 9q-27 15 -57 15q-35 0 -70 -19q-83 -44 -131 -156q-48 -110 -37 -222t73 -163q1 0 2 -1l2 -2q7 -6 17 -11zM1190 619q60 -46 95.5 -127.5t35.5 -177.5q0 -147 -78.5 -251.5t-190.5 -104.5
q-61 0 -114 34q-2 1 -17 11q-8 6 -11 9q-2 1 -15 14q-53 49 -83 124.5t-30 163.5q0 147 79.5 251.5t190.5 104.5q71 0 133 -48q2 1 2 0zM1209 194q48 110 37 222t-73 163q-4 4 -7 6l-14 9q-25 14 -56 14q-35 0 -70 -19q-83 -44 -131 -156q-48 -110 -37 -221.5t73 -162.5
l4 -4q8 -6 17 -11q59 -32 126 5q80 41 131 155zM1778 619q60 -46 95.5 -127.5t35.5 -177.5q0 -147 -78.5 -251.5t-190.5 -104.5q-61 0 -114 34q-3 1 -5.5 3t-5.5 4.5t-5 3.5q-1 1 -3.5 2.5t-4.5 3t-4 3.5q-2 1 -15 14q-53 49 -83 124.5t-30 163.5q0 147 79.5 251.5
t190.5 104.5q71 0 133 -48q2 1 2 0zM1666 39q80 41 131 155q48 110 37 222t-73 163q-4 4 -7 6l-14 9q-25 14 -56 14q-35 0 -70 -19q-83 -44 -131 -156q-48 -110 -37 -221.5t73 -162.5l4 -4q7 -6 17 -11q59 -32 126 5z" />
    <glyph glyph-name="guilsinglleft" unicode="&#x2039;" horiz-adv-x="485" 
d="M459 841l-318 -390l318 -390h-152l-275 387l-1 3l1 2l275 388h152z" />
    <glyph glyph-name="guilsinglright" unicode="&#x203a;" horiz-adv-x="485" 
d="M451 453l2 -2l-2 -3l-274 -387h-152l317 390l-317 390h152z" />
    <glyph glyph-name="fraction" unicode="&#x2044;" horiz-adv-x="1282" 
d="M1025 1304h173l-1002 -1369l-112 -1z" />
    <glyph glyph-name="Euro" unicode="&#x20ac;" horiz-adv-x="1220" 
d="M749 135q120 57 213 192h205q-73 -149 -199.5 -238t-274.5 -89q-121 0 -231 63q-9 4 -34 20q-12 7 -24 18q-11 6 -30 25q-85 72 -142.5 179.5t-77.5 234.5h-129v54h122q-3 34 -3 71q0 47 4 83h-123v54h131q40 228 190.5 377.5t346.5 149.5q147 0 273 -88q2 0 3 -1
q2 -1 6 -5q141 -101 213 -281h-103q-38 147 -136 221q-7 6 -16 11q1 0 4 -2t4 -2t2.5 -2t2.5 -3q-1 1 -2.5 3t-2.5 2t-4 2t-4 2l-29 17q-55 28 -118 28q-72 0 -147 -36q-84 -41 -155 -118t-120 -182q-17 -34 -38 -93h510v-54h-526q-19 -70 -26 -154h552v-54h-554
q0 -125 40.5 -227t116.5 -159q2 -1 4.5 -3t3.5 -3q12 -9 36 -22q124 -61 266 9z" />
    <glyph glyph-name="trademark" unicode="&#x2122;" horiz-adv-x="1456" 
d="M1292 1314l118 -728h-106l-57 704l-199 -704h-70l-204 704l-52 -704h-100l117 728h87l190 -626l192 626h84zM651 1314v-30h-250v-698h-71v698h-252v30h573z" />
    <glyph glyph-name="minus" unicode="&#x2212;" horiz-adv-x="905" 
d="M882 580h-859v95h859v-95z" />
    </font>
</defs>
</svg>
